<?xml version="1.0" encoding="UTF-8" standalone="no"?>
<!-- Created with Inkscape (http://www.inkscape.org/) -->

<svg
   xmlns:dc="http://purl.org/dc/elements/1.1/"
   xmlns:cc="http://creativecommons.org/ns#"
   xmlns:rdf="http://www.w3.org/1999/02/22-rdf-syntax-ns#"
   xmlns:svg="http://www.w3.org/2000/svg"
   xmlns="http://www.w3.org/2000/svg"
   xmlns:xlink="http://www.w3.org/1999/xlink"
   xmlns:sodipodi="http://sodipodi.sourceforge.net/DTD/sodipodi-0.dtd"
   xmlns:inkscape="http://www.inkscape.org/namespaces/inkscape"
   width="28.222223mm"
   height="27.375555mm"
   viewBox="0 0 100 96.999998"
   id="svg4247"
   version="1.1"
   inkscape:version="0.92.4 5da689c313, 2019-01-14"
   sodipodi:docname="analog_meter.svg">
  <defs
     id="defs4249">
    <linearGradient
       inkscape:collect="always"
       id="linearGradient4867">
      <stop
         style="stop-color:#01a299;stop-opacity:1"
         offset="0"
         id="stop4869" />
      <stop
         style="stop-color:#1af0e5;stop-opacity:0"
         offset="1"
         id="stop4871" />
    </linearGradient>
    <linearGradient
       inkscape:collect="always"
       xlink:href="#linearGradient4867"
       id="linearGradient4873"
       x1="616.28571"
       y1="724.50507"
       x2="518.28571"
       y2="725.50507"
       gradientUnits="userSpaceOnUse" />
  </defs>
  <sodipodi:namedview
     id="base"
     pagecolor="#ececec"
     bordercolor="#666666"
     borderopacity="1.0"
     inkscape:pageopacity="1"
     inkscape:pageshadow="2"
     inkscape:zoom="5.6568542"
     inkscape:cx="31.689203"
     inkscape:cy="58.421772"
     inkscape:document-units="px"
     inkscape:current-layer="layer1"
     showgrid="true"
     fit-margin-top="0"
     fit-margin-left="0"
     fit-margin-right="0"
     fit-margin-bottom="0"
     inkscape:snap-bbox="true"
     inkscape:bbox-nodes="true"
     inkscape:snap-global="true"
     inkscape:snap-nodes="true"
     inkscape:object-nodes="true"
     inkscape:window-width="1920"
     inkscape:window-height="1059"
     inkscape:window-x="0"
     inkscape:window-y="0"
     inkscape:window-maximized="1"
     showborder="true">
    <inkscape:grid
       type="xygrid"
       id="grid4801"
       originx="4.4335937e-06"
       originy="-2.9999974"
       visible="true" />
  </sodipodi:namedview>
  <metadata
     id="metadata4252">
    <rdf:RDF>
      <cc:Work
         rdf:about="">
        <dc:format>image/svg+xml</dc:format>
        <dc:type
           rdf:resource="http://purl.org/dc/dcmitype/StillImage" />
        <dc:title></dc:title>
      </cc:Work>
    </rdf:RDF>
  </metadata>
  <g
     inkscape:label="Capa 1"
     inkscape:groupmode="layer"
     id="layer1"
     transform="translate(-524.28571,-679.50507)">
    <g
       id="background">
      <g
         id="g4902">
        <path
           style="opacity:1;fill:#ffffff;fill-opacity:1;stroke:none;stroke-width:2;stroke-miterlimit:4;stroke-dasharray:none"
           d="m 574.28571,679.50509 c -27.61424,0 -50,22.38576 -50,50 0.0208,6.88756 1.46439,13.69654 4.24023,20 l 91.13253,-0.0335 c 2.76309,-6.30618 4.61813,-13.08157 4.62724,-19.96652 0,-27.61424 -22.38576,-50 -50,-50 z"
           id="path4234"
           inkscape:connector-curvature="0"
           sodipodi:nodetypes="sccccs" />
        <path
           style="opacity:0.4;fill:#000000;fill-opacity:1;stroke:none;stroke-width:2;stroke-miterlimit:4;stroke-dasharray:none"
           d="M 50,0 C 22.385763,0 0,22.385763 0,50 c 0.00910835,6.884946 1.4400359,13.69382 4.203125,20 0.4817933,0.990833 0.3556605,0.714251 0.4843746,1 l 90.6269534,0 c 0.447266,-1 0.357926,-0.797714 0.445313,-1 C 98.535609,63.696542 99.979193,56.887558 100,50 100,22.385763 77.614237,0 50,0 Z m 0,1 c 27.061953,0 49,21.938047 49,49 -0.01355,6.895709 -1.482414,13.71091 -4.310547,20 L 5.3339844,70 C 2.4977862,63.712672 1.0209214,56.897397 1,50 1,22.938047 22.938047,1 50,1 Z"
           transform="translate(524.28571,679.50507)"
           id="circle4805"
           inkscape:connector-curvature="0"
           sodipodi:nodetypes="sccccccssccccs" />
        <path
           style="opacity:0.4;fill:#000000;fill-opacity:1;stroke:none;stroke-width:2;stroke-miterlimit:4;stroke-dasharray:none"
           d="M 50,5 A 45,45 0 0 0 5,50 l 0,1 0,1 1,0 9,0 0,-1 -9,0 0,-1 A 44,44 0 0 1 50,6 44,44 0 0 1 94,50 l 0,1 -10,0 0,1 11,0 0,-1 0,-1 A 45,45 0 0 0 50,5 Z"
           transform="translate(524.28571,679.50507)"
           id="rect4825"
           inkscape:connector-curvature="0" />
        <path
           style="opacity:1;fill:url(#linearGradient4873);fill-opacity:1;stroke:none;stroke-width:2;stroke-miterlimit:4;stroke-dasharray:none"
           d="m 574.2855,687.32734 c -23.19596,0 -42,18.80404 -42,42 0.003,0.0592 0.006,0.11849 0.01,0.17773 3.75635,-19.81726 21.07007,-34.16577 41.24023,-34.17773 0.10419,0.005 0.63413,-0.006 0.73828,0 l 0.0117,0 c 18.77768,0 34,15.40005 34,34.17773 l 8,0 c 0,-23.19596 -18.80404,-42.17773 -42,-42.17773 z"
           id="path4838"
           inkscape:connector-curvature="0"
           sodipodi:nodetypes="sccccsccss" />
      </g>
    </g>
    <rect
       style="opacity:1;fill:#ffffff;fill-opacity:0.07843137;stroke:none;stroke-width:2;stroke-miterlimit:4;stroke-dasharray:none"
       id="label1"
       width="80.000008"
       height="10"
       x="534.28571"
       y="735.50507" />
    <rect
       y="757.50507"
       x="524.28571"
       height="12"
       width="100"
       id="label0"
       style="opacity:1;fill:#ffffff;fill-opacity:0.07843137;stroke:none;stroke-width:2;stroke-miterlimit:4;stroke-dasharray:none" />
    <path
       style="opacity:1;fill:#202020;fill-opacity:1;stroke:none;stroke-width:2;stroke-miterlimit:4;stroke-dasharray:none"
       d="m 574.28571,726.50507 a 5,5 0 0 0 -5,5 5,5 0 0 0 0.0312,0.52148 c 0.17264,4.13878 3.02932,30.90248 4.96875,44.47852 1.93466,-13.54263 4.77936,-40.19703 4.96485,-44.4375 a 5,5 0 0 0 0.0352,-0.5625 5,5 0 0 0 -5,-5 z"
       id="pointer"
       inkscape:connector-curvature="0" />
    <rect
       style="opacity:1;fill:#ffffff;fill-opacity:0.07843137;stroke:none;stroke-width:2;stroke-miterlimit:4;stroke-dasharray:none"
       id="rotateminmax"
       width="360"
       height="97"
       x="524.28571"
       y="776.50507" />
    <path
       id="rotatecenter"
       d="m 579.28571,731.50507 a 5,5 0 0 1 -5,5 5,5 0 0 1 -5,-5 5,5 0 0 1 5,-5 5,5 0 0 1 5,5 z"
       style="opacity:1;fill:#202020;fill-opacity:1;stroke:none;stroke-width:2;stroke-miterlimit:4;stroke-dasharray:none"
       inkscape:connector-curvature="0" />
  </g>
</svg>
