<?xml version="1.0" encoding="UTF-8" standalone="no"?>
<!-- Created with Inkscape (http://www.inkscape.org/) -->

<svg
   xmlns:dc="http://purl.org/dc/elements/1.1/"
   xmlns:cc="http://creativecommons.org/ns#"
   xmlns:rdf="http://www.w3.org/1999/02/22-rdf-syntax-ns#"
   xmlns:svg="http://www.w3.org/2000/svg"
   xmlns="http://www.w3.org/2000/svg"
   xmlns:sodipodi="http://sodipodi.sourceforge.net/DTD/sodipodi-0.dtd"
   xmlns:inkscape="http://www.inkscape.org/namespaces/inkscape"
   width="260"
   height="260"
   viewBox="0 0 243.75001 243.75005"
   id="svg2"
   version="1.1"
   inkscape:version="0.92.3 (2405546, 2018-03-11)"
   sodipodi:docname="clock.svgz">
  <defs
     id="defs4" />
  <sodipodi:namedview
     id="base"
     pagecolor="#777777"
     bordercolor="#666666"
     borderopacity="1.0"
     inkscape:pageopacity="1"
     inkscape:pageshadow="2"
     inkscape:zoom="1.4142137"
     inkscape:cx="-109.86933"
     inkscape:cy="50.133796"
     inkscape:document-units="px"
     inkscape:current-layer="layer1"
     showgrid="true"
     fit-margin-top="0"
     fit-margin-left="0"
     fit-margin-right="0"
     fit-margin-bottom="0"
     inkscape:snap-bbox="true"
     inkscape:bbox-nodes="true"
     inkscape:object-nodes="true"
     inkscape:snap-bbox-edge-midpoints="true"
     inkscape:window-width="1876"
     inkscape:window-height="1021"
     inkscape:window-x="44"
     inkscape:window-y="30"
     inkscape:window-maximized="1"
     showguides="false"
     units="px"
     inkscape:pagecheckerboard="true">
    <inkscape:grid
       type="xygrid"
       id="grid4578"
       originx="-4.5433029e-06"
       originy="8.1328694e-06" />
  </sodipodi:namedview>
  <metadata
     id="metadata7">
    <rdf:RDF>
      <cc:Work
         rdf:about="">
        <dc:format>image/svg+xml</dc:format>
        <dc:type
           rdf:resource="http://purl.org/dc/dcmitype/StillImage" />
        <dc:title />
      </cc:Work>
    </rdf:RDF>
  </metadata>
  <g
     inkscape:label="Capa 1"
     inkscape:groupmode="layer"
     id="layer1"
     transform="translate(-111.99998,-944.10331)">
    <g
       aria-label="LUX"
       style="font-style:normal;font-variant:normal;font-weight:bold;font-stretch:normal;font-size:2.11666656px;line-height:6.61458302px;font-family:sans-serif;-inkscape-font-specification:'sans-serif, Bold';font-variant-ligatures:normal;font-variant-caps:normal;font-variant-numeric:normal;font-feature-settings:normal;text-align:start;letter-spacing:0px;word-spacing:0px;writing-mode:lr-tb;text-anchor:start;fill:#b96bff;fill-opacity:1;stroke:none;stroke-width:0.26458332"
       id="text4634"
       transform="matrix(3.5433075,0,0,3.5433075,111.99998,135.49104)" />
    <g
       id="ClockFace">
      <path
         d="m 349.76856,1066.4611 v -1.3159 h 1.49536 q 1.05103,0 1.71753,-0.6153 0.67505,-0.6152 0.67505,-1.5722 0,-0.94 -0.64941,-1.5125 -0.64941,-0.5811 -1.71753,-0.5811 -1.06812,0 -1.72607,0.564 -0.65796,0.5554 -0.75196,1.5466 h -1.49536 q 0.11962,-1.6064 1.19629,-2.5292 1.07666,-0.9229 2.83691,-0.9229 1.05957,0 1.94825,0.4358 0.89721,0.4272 1.40991,1.1706 0.5127,0.7435 0.5127,1.6236 0,1.1023 -0.57251,1.8628 -0.57251,0.7605 -1.58936,1.0083 v 0.1368 q 1.2561,0.1622 1.97387,0.9826 0.71778,0.8118 0.71778,2.0764 0,1.521 -1.2561,2.5721 -1.25611,1.0424 -3.08472,1.0424 -1.87989,0 -3.06763,-0.957 -1.18774,-0.9656 -1.27319,-2.5464 h 1.48682 q 0.10254,0.9827 0.87157,1.5723 0.76905,0.5896 1.96534,0.5896 1.21338,0 1.99097,-0.6494 0.78613,-0.6494 0.78613,-1.6663 0,-1.0681 -0.7605,-1.6919 -0.7605,-0.6238 -2.07642,-0.6238 z"
         style="font-style:normal;font-variant:normal;font-weight:normal;font-stretch:normal;font-size:4.93888903px;line-height:6.61458302px;font-family:'SF UI Text';-inkscape-font-specification:'SF UI Text, Normal';font-variant-ligatures:normal;font-variant-caps:normal;font-variant-numeric:normal;font-feature-settings:normal;text-align:start;letter-spacing:0px;word-spacing:0px;writing-mode:lr-tb;text-anchor:start;fill:#b96bff;fill-opacity:1;stroke:none;stroke-width:0.93750006"
         id="path4733"
         inkscape:connector-curvature="0" />
      <path
         d="m 234.03306,1187.8533 q -1.39282,0 -2.42676,-0.7177 -1.03393,-0.7264 -1.61499,-2.085 -0.59814,-1.4014 -0.59814,-3.4351 0,-3.1787 1.23901,-4.9218 1.23902,-1.7432 3.50342,-1.7432 1.57227,0 2.65747,0.8716 1.09375,0.863 1.38428,2.3498 h -1.58081 q -0.24782,-0.863 -0.91431,-1.3586 -0.65796,-0.4956 -1.56372,-0.4956 -1.50391,0 -2.34131,1.2988 -0.82885,1.2988 -0.88867,3.7598 h 0.13674 q 0.45288,-0.8972 1.31591,-1.3928 0.86304,-0.5042 1.96534,-0.5042 1.76025,0 2.90527,1.1707 1.14502,1.162 1.14502,2.9565 0,1.8628 -1.21338,3.0591 -1.21338,1.1877 -3.11035,1.1877 z m -2.00806,-2.1789 q 0.80323,0.8288 1.99097,0.8288 1.18775,0 1.98242,-0.8117 0.80323,-0.8203 0.80323,-2.0337 0,-1.2647 -0.77759,-2.0508 -0.76904,-0.7947 -1.99097,-0.7947 -1.22192,0 -2.0166,0.7862 -0.78613,0.7861 -0.78613,2.008 0,1.239 0.79467,2.0679 z"
         style="font-style:normal;font-variant:normal;font-weight:normal;font-stretch:normal;font-size:4.93888903px;line-height:6.61458302px;font-family:'SF UI Text';-inkscape-font-specification:'SF UI Text, Normal';font-variant-ligatures:normal;font-variant-caps:normal;font-variant-numeric:normal;font-feature-settings:normal;text-align:start;letter-spacing:0px;word-spacing:0px;writing-mode:lr-tb;text-anchor:start;fill:#b96bff;fill-opacity:1;stroke:none;stroke-width:0.93750006"
         id="path4739"
         inkscape:connector-curvature="0" />
      <path
         d="m 116.2237,1072.4297 q -1.57228,0 -2.66602,-0.863 -1.08521,-0.8716 -1.37573,-2.3584 h 1.58081 q 0.24768,0.863 0.90574,1.3586 0.66654,0.4956 1.57228,0.4956 1.50392,0 2.33277,-1.2988 0.83739,-1.2988 0.8972,-3.7598 h -0.0684 -0.0354 -0.0354 q -0.45287,0.8973 -1.31592,1.4014 -0.86304,0.4956 -1.96533,0.4956 -1.76028,0 -2.9053,-1.1621 -1.14502,-1.1707 -1.14502,-2.9651 0,-1.8628 1.21341,-3.0505 1.21337,-1.1963 3.11035,-1.1963 1.38426,0 2.42674,0.7178 1.04248,0.7177 1.615,2.0849 0.59815,1.4014 0.59815,3.4351 0,3.1787 -1.23902,4.9218 -1.23903,1.7432 -3.50341,1.7432 z m -1.89698,-6.6479 q 0.77757,0.7861 1.99952,0.7861 1.22191,0 2.00806,-0.7861 0.79466,-0.7862 0.79466,-2.0081 0,-1.239 -0.80323,-2.0679 -0.79466,-0.8288 -1.98241,-0.8288 -1.18775,0 -1.99095,0.8203 -0.79469,0.8117 -0.79469,2.0252 0,1.2646 0.76904,2.0593 z"
         style="font-style:normal;font-variant:normal;font-weight:normal;font-stretch:normal;font-size:4.93888903px;line-height:6.61458302px;font-family:'SF UI Text';-inkscape-font-specification:'SF UI Text, Normal';font-variant-ligatures:normal;font-variant-caps:normal;font-variant-numeric:normal;font-feature-settings:normal;text-align:start;letter-spacing:0px;word-spacing:0px;writing-mode:lr-tb;text-anchor:start;fill:#b96bff;fill-opacity:1;stroke:none;stroke-width:0.93750006"
         id="path4745"
         inkscape:connector-curvature="0" />
      <g
         transform="matrix(3.5433075,0,0,3.5433075,-208.91675,-59.344472)"
         id="g4777">
        <path
           inkscape:connector-curvature="0"
           id="path4755"
           style="font-style:normal;font-variant:normal;font-weight:normal;font-stretch:normal;font-size:4.93888903px;line-height:6.61458302px;font-family:'SF UI Text';-inkscape-font-specification:'SF UI Text, Normal';font-variant-ligatures:normal;font-variant-caps:normal;font-variant-numeric:normal;font-feature-settings:normal;text-align:start;letter-spacing:0px;word-spacing:0px;writing-mode:lr-tb;text-anchor:start;fill:#b96bff;fill-opacity:1;stroke:none;stroke-width:0.26458332"
           d="m 123.56937,286.75711 v -2.99758 h -0.0386 l -0.88505,0.64148 v -0.4582 l 0.92604,-0.66559 h 0.43167 v 3.47989 z" />
        <path
           inkscape:connector-curvature="0"
           id="path4757"
           style="font-style:normal;font-variant:normal;font-weight:normal;font-stretch:normal;font-size:4.93888903px;line-height:6.61458302px;font-family:'SF UI Text';-inkscape-font-specification:'SF UI Text, Normal';font-variant-ligatures:normal;font-variant-caps:normal;font-variant-numeric:normal;font-feature-settings:normal;text-align:start;letter-spacing:0px;word-spacing:0px;writing-mode:lr-tb;text-anchor:start;fill:#b96bff;fill-opacity:1;stroke:none;stroke-width:0.26458332"
           d="m 125.01149,284.25632 q 0,-0.46303 0.3135,-0.76206 0.31592,-0.29903 0.80064,-0.29903 0.46784,0 0.78376,0.28215 0.31833,0.27974 0.31833,0.69453 0,0.27251 -0.15434,0.53537 -0.15434,0.26286 -0.58119,0.72106 l -0.83682,0.89951 v 0.0386 h 1.63022 v 0.39067 h -2.2524 v -0.29903 l 1.20337,-1.31431 q 0.33521,-0.36414 0.44614,-0.55466 0.11093,-0.19051 0.11093,-0.40032 0,-0.26045 -0.19774,-0.43649 -0.19534,-0.17846 -0.48232,-0.17846 -0.30627,0 -0.49437,0.1881 -0.1881,0.18811 -0.1881,0.49438 v 0.002 h -0.41961 z" />
      </g>
      <path
         inkscape:connector-curvature="0"
         id="path1193"
         transform="matrix(0.93750012,0,0,0.93750012,111.99998,944.10331)"
         d="M 115,6.015625 A 125.00001,125.00001 0 0 0 6.0996094,115 H 7.0273438 A 124.00001,124.00001 0 0 1 115,7.0957031 Z m 30,0.072266 V 7.0273438 A 124.00001,124.00001 0 0 1 252.9043,115 h 1.06445 A 125.00001,125.00001 0 0 0 145,6.087891 Z M 6.03125,145 A 125.00001,125.00001 0 0 0 115,253.91211 v -0.93945 A 124.00001,124.00001 0 0 1 7.0957031,145 Z m 246.94141,0 A 124.00001,124.00001 0 0 1 145,252.9043 v 1.08008 A 125.00001,125.00001 0 0 0 253.90039,145 Z"
         style="fill:#b96bff;fill-opacity:1;stroke-width:0.99999976" />
      <g
         transform="translate(121.87496,-121.87495)"
         id="g6370">
        <rect
           style="fill:#b96bff;fill-opacity:1;stroke-width:1.1205281"
           id="rect1282"
           width="0.93750012"
           height="9.3750191"
           x="1169.1703"
           y="-333.9881"
           ry="0"
           transform="rotate(95.999982)" />
        <rect
           style="fill:#b96bff;fill-opacity:1;stroke-width:1.1205281"
           id="rect1282-8"
           width="0.93750012"
           height="9.3750191"
           x="1138.141"
           y="-454.95865"
           ry="0"
           transform="rotate(102)" />
        <rect
           style="fill:#b96bff;fill-opacity:1;stroke-width:1.1205281"
           id="rect1282-1"
           width="0.93750012"
           height="9.3750191"
           x="1094.6371"
           y="-572.02258"
           ry="0"
           transform="rotate(108)" />
        <rect
           style="fill:#b96bff;fill-opacity:1;stroke-width:1.1205281"
           id="rect1282-8-0"
           width="0.93750012"
           height="9.3750191"
           x="1039.1349"
           y="-683.89789"
           ry="0"
           transform="rotate(113.99999)" />
        <rect
           style="fill:#b96bff;fill-opacity:1;stroke-width:1.1205281"
           id="rect1282-9"
           width="0.93750012"
           height="9.3750191"
           x="972.24274"
           y="-789.35864"
           ry="0"
           transform="rotate(119.99998)" />
        <rect
           style="fill:#b96bff;fill-opacity:1;stroke-width:1.1205281"
           id="rect1282-8-3"
           width="0.93750012"
           height="9.3750191"
           x="894.69293"
           y="-887.25"
           ry="0"
           transform="rotate(126)" />
        <rect
           style="fill:#b96bff;fill-opacity:1;stroke-width:1.1205281"
           id="rect1282-1-0"
           width="0.93750012"
           height="9.3750191"
           x="807.33563"
           y="-976.49878"
           ry="0"
           transform="rotate(132)" />
        <rect
           style="fill:#b96bff;fill-opacity:1;stroke-width:1.1205281"
           id="rect1282-8-0-2"
           width="0.93750012"
           height="9.3750191"
           x="711.12811"
           y="-1056.1271"
           ry="0"
           transform="rotate(138)" />
        <rect
           style="fill:#b96bff;fill-opacity:1;stroke-width:1.1205281"
           id="rect1282-9-6"
           width="0.93750012"
           height="9.3750191"
           x="607.12445"
           y="-1125.2628"
           ry="0"
           transform="rotate(143.99998)" />
        <rect
           style="fill:#b96bff;fill-opacity:1;stroke-width:1.1205281"
           id="rect1282-8-3-4"
           width="0.93750012"
           height="9.3750191"
           x="496.46289"
           y="-1183.1488"
           ry="0"
           transform="rotate(150.00001)" />
        <rect
           style="fill:#b96bff;fill-opacity:1;stroke-width:1.1205281"
           id="rect1282-3"
           width="0.93750012"
           height="9.3750191"
           x="380.35785"
           y="-1229.15"
           ry="0"
           transform="rotate(155.99999)" />
        <rect
           style="fill:#b96bff;fill-opacity:1;stroke-width:1.1205281"
           id="rect1282-8-8"
           width="0.93750012"
           height="9.3750191"
           x="260.07983"
           y="-1262.7631"
           ry="0"
           transform="rotate(162)" />
        <rect
           style="fill:#b96bff;fill-opacity:1;stroke-width:1.1205281"
           id="rect1282-1-6"
           width="0.93750012"
           height="9.3750191"
           x="136.94751"
           y="-1283.6195"
           ry="0"
           transform="rotate(167.99999)" />
        <rect
           style="fill:#b96bff;fill-opacity:1;stroke-width:1.1205281"
           id="rect1282-8-0-7"
           width="0.93750012"
           height="9.3750191"
           x="12.309042"
           y="-1291.491"
           ry="0"
           transform="rotate(174.00001)" />
        <rect
           style="fill:#b96bff;fill-opacity:1;stroke-width:1.1205281"
           id="rect1282-9-0"
           width="0.93750012"
           height="9.3750191"
           x="-112.46885"
           y="-1286.2908"
           ry="0"
           transform="scale(-1)" />
        <rect
           style="fill:#b96bff;fill-opacity:1;stroke-width:1.1205281"
           id="rect1282-8-3-8"
           width="0.93750012"
           height="9.3750191"
           x="-236.01942"
           y="-1268.0765"
           ry="0"
           transform="rotate(-174.00001)" />
        <rect
           style="fill:#b96bff;fill-opacity:1;stroke-width:1.1205281"
           id="rect1282-1-0-1"
           width="0.93750012"
           height="9.3750191"
           x="-356.99002"
           y="-1237.0472"
           ry="0"
           transform="rotate(-167.99999)" />
        <rect
           style="fill:#b96bff;fill-opacity:1;stroke-width:1.1205281"
           id="rect1282-8-0-2-9"
           width="0.93750012"
           height="9.3750191"
           x="-474.05396"
           y="-1193.5432"
           ry="0"
           transform="rotate(-162)" />
        <rect
           style="fill:#b96bff;fill-opacity:1;stroke-width:1.1205281"
           id="rect1282-9-6-8"
           width="0.93750012"
           height="9.3750191"
           x="-585.9292"
           y="-1138.0411"
           ry="0"
           transform="rotate(-156)" />
        <rect
           style="fill:#b96bff;fill-opacity:1;stroke-width:1.1205281"
           id="rect1282-8-3-4-1"
           width="0.93750012"
           height="9.3750191"
           x="-691.39008"
           y="-1071.1488"
           ry="0"
           transform="rotate(-150.00001)" />
        <rect
           style="fill:#b96bff;fill-opacity:1;stroke-width:1.1205281"
           id="rect1282-6"
           width="0.93750012"
           height="9.3750191"
           x="-789.28143"
           y="-993.59906"
           ry="0"
           transform="rotate(-143.99999)" />
        <rect
           style="fill:#b96bff;fill-opacity:1;stroke-width:1.1205281"
           id="rect1282-8-4"
           width="0.93750012"
           height="9.3750191"
           x="-878.52985"
           y="-906.24213"
           ry="0"
           transform="rotate(-138.00001)" />
        <rect
           style="fill:#b96bff;fill-opacity:1;stroke-width:1.1205281"
           id="rect1282-1-8"
           width="0.93750012"
           height="9.3750191"
           x="-958.1582"
           y="-810.03461"
           ry="0"
           transform="rotate(-132.00002)" />
        <rect
           style="fill:#b96bff;fill-opacity:1;stroke-width:1.1205281"
           id="rect1282-8-0-5"
           width="0.93750012"
           height="9.3750191"
           x="-1027.2939"
           y="-706.0307"
           ry="0"
           transform="rotate(-126.00002)" />
        <rect
           style="fill:#b96bff;fill-opacity:1;stroke-width:1.1205281"
           id="rect1282-9-01"
           width="0.93750012"
           height="9.3750191"
           x="-1085.1799"
           y="-595.36938"
           ry="0"
           transform="rotate(-120)" />
        <rect
           style="fill:#b96bff;fill-opacity:1;stroke-width:1.1205281"
           id="rect1282-8-3-5"
           width="0.93750012"
           height="9.3750191"
           x="-1131.1813"
           y="-479.26404"
           ry="0"
           transform="rotate(-114)" />
        <rect
           style="fill:#b96bff;fill-opacity:1;stroke-width:1.1205281"
           id="rect1282-1-0-9"
           width="0.93750012"
           height="9.3750191"
           x="-1164.7943"
           y="-358.98624"
           ry="0"
           transform="rotate(-108.00001)" />
        <rect
           style="fill:#b96bff;fill-opacity:1;stroke-width:1.1205281"
           id="rect1282-8-0-2-7"
           width="0.93750012"
           height="9.3750191"
           x="-1185.6508"
           y="-235.85393"
           ry="0"
           transform="rotate(-102.00002)" />
        <rect
           style="fill:#b96bff;fill-opacity:1;stroke-width:1.1205281"
           id="rect1282-9-6-0"
           width="0.93750012"
           height="9.3750191"
           x="-1193.5221"
           y="-111.21553"
           ry="0"
           transform="rotate(-95.999996)" />
        <rect
           style="fill:#b96bff;fill-opacity:1;stroke-width:1.1205281"
           id="rect1282-8-3-4-6"
           width="0.93750012"
           height="9.3750191"
           x="-1188.3221"
           y="13.562462"
           ry="0"
           transform="rotate(-90.000003)" />
        <rect
           style="fill:#b96bff;fill-opacity:1;stroke-width:1.1205281"
           id="rect1282-3-2"
           width="0.93750012"
           height="9.3750191"
           x="-1170.1077"
           y="137.11353"
           ry="0"
           transform="rotate(-83.999996)" />
        <rect
           style="fill:#b96bff;fill-opacity:1;stroke-width:1.1205281"
           id="rect1282-8-8-8"
           width="0.93750012"
           height="9.3750191"
           x="-1139.0786"
           y="258.08337"
           ry="0"
           transform="rotate(-78.000009)" />
        <rect
           style="fill:#b96bff;fill-opacity:1;stroke-width:1.1205281"
           id="rect1282-1-6-9"
           width="0.93750012"
           height="9.3750191"
           x="-1095.5745"
           y="375.14758"
           ry="0"
           transform="rotate(-72.000002)" />
        <rect
           style="fill:#b96bff;fill-opacity:1;stroke-width:1.1205281"
           id="rect1282-8-0-7-5"
           width="0.93750012"
           height="9.3750191"
           x="-1040.0724"
           y="487.02292"
           ry="0"
           transform="rotate(-66.000009)" />
        <rect
           style="fill:#b96bff;fill-opacity:1;stroke-width:1.1205281"
           id="rect1282-9-0-0"
           width="0.93750012"
           height="9.3750191"
           x="-973.17987"
           y="592.48401"
           ry="0"
           transform="rotate(-59.999995)" />
        <rect
           style="fill:#b96bff;fill-opacity:1;stroke-width:1.1205281"
           id="rect1282-8-3-8-2"
           width="0.93750012"
           height="9.3750191"
           x="-895.63043"
           y="690.37494"
           ry="0"
           transform="rotate(-54.000005)" />
        <rect
           style="fill:#b96bff;fill-opacity:1;stroke-width:1.1205281"
           id="rect1282-1-0-1-7"
           width="0.93750012"
           height="9.3750191"
           x="-808.27319"
           y="779.62366"
           ry="0"
           transform="rotate(-48.000001)" />
        <rect
           style="fill:#b96bff;fill-opacity:1;stroke-width:1.1205281"
           id="rect1282-8-0-2-9-2"
           width="0.93750012"
           height="9.3750191"
           x="-712.06567"
           y="859.25208"
           ry="0"
           transform="rotate(-42.000005)" />
        <rect
           style="fill:#b96bff;fill-opacity:1;stroke-width:1.1205281"
           id="rect1282-9-6-8-8"
           width="0.93750012"
           height="9.3750191"
           x="-608.06146"
           y="928.388"
           ry="0"
           transform="rotate(-35.999994)" />
        <rect
           style="fill:#b96bff;fill-opacity:1;stroke-width:1.1205281"
           id="rect1282-8-3-4-1-1"
           width="0.93750012"
           height="9.3750191"
           x="-497.40067"
           y="986.27362"
           ry="0"
           transform="rotate(-30.000004)" />
        <rect
           style="fill:#b96bff;fill-opacity:1;stroke-width:1.1205281"
           id="rect1282-7"
           width="0.93750012"
           height="9.3750191"
           x="-381.29523"
           y="1032.2749"
           ry="0"
           transform="rotate(-24.000004)" />
        <rect
           style="fill:#b96bff;fill-opacity:1;stroke-width:1.1205281"
           id="rect1282-8-7"
           width="0.93750012"
           height="9.3750191"
           x="-261.01746"
           y="1065.8879"
           ry="0"
           transform="rotate(-18.000007)" />
        <rect
           style="fill:#b96bff;fill-opacity:1;stroke-width:1.1205281"
           id="rect1282-1-9"
           width="0.93750012"
           height="9.3750191"
           x="-137.88489"
           y="1086.7445"
           ry="0"
           transform="rotate(-12.000003)" />
        <rect
           style="fill:#b96bff;fill-opacity:1;stroke-width:1.1205281"
           id="rect1282-8-0-79"
           width="0.93750012"
           height="9.3750191"
           x="-13.247005"
           y="1094.6158"
           ry="0"
           transform="rotate(-6.0000096)" />
        <rect
           style="fill:#b96bff;fill-opacity:1;stroke-width:1.1205281"
           id="rect1282-9-8"
           width="0.93750012"
           height="9.3750191"
           x="111.53118"
           y="1089.4158"
           ry="0" />
        <rect
           style="fill:#b96bff;fill-opacity:1;stroke-width:1.1205281"
           id="rect1282-8-3-89"
           width="0.93750012"
           height="9.3750191"
           x="235.08211"
           y="1071.2015"
           ry="0"
           transform="rotate(5.9999972)" />
        <rect
           style="fill:#b96bff;fill-opacity:1;stroke-width:1.1205281"
           id="rect1282-1-0-8"
           width="0.93750012"
           height="9.3750191"
           x="356.05231"
           y="1040.1722"
           ry="0"
           transform="rotate(11.999998)" />
        <rect
           style="fill:#b96bff;fill-opacity:1;stroke-width:1.1205281"
           id="rect1282-8-0-2-0"
           width="0.93750012"
           height="9.3750191"
           x="473.11639"
           y="996.66827"
           ry="0"
           transform="rotate(17.999999)" />
        <rect
           style="fill:#b96bff;fill-opacity:1;stroke-width:1.1205281"
           id="rect1282-9-6-5"
           width="0.93750012"
           height="9.3750191"
           x="584.99176"
           y="941.16595"
           ry="0"
           transform="rotate(23.999997)" />
        <rect
           style="fill:#b96bff;fill-opacity:1;stroke-width:1.1205281"
           id="rect1282-8-3-4-2"
           width="0.93750012"
           height="9.3750191"
           x="690.4527"
           y="874.27368"
           ry="0"
           transform="rotate(29.999997)" />
        <rect
           style="fill:#b96bff;fill-opacity:1;stroke-width:1.1205281"
           id="rect1282-3-0"
           width="0.93750012"
           height="9.3750191"
           x="788.34369"
           y="796.72412"
           ry="0"
           transform="rotate(35.999994)" />
        <rect
           style="fill:#b96bff;fill-opacity:1;stroke-width:1.1205281"
           id="rect1282-8-8-2"
           width="0.93750012"
           height="9.3750191"
           x="877.59247"
           y="709.36694"
           ry="0"
           transform="rotate(41.999998)" />
        <rect
           style="fill:#b96bff;fill-opacity:1;stroke-width:1.1205281"
           id="rect1282-1-6-4"
           width="0.93750012"
           height="9.3750191"
           x="957.22095"
           y="613.15924"
           ry="0"
           transform="rotate(48.000001)" />
        <rect
           style="fill:#b96bff;fill-opacity:1;stroke-width:1.1205281"
           id="rect1282-8-0-7-3"
           width="0.93750012"
           height="9.3750191"
           x="1026.3567"
           y="509.15518"
           ry="0"
           transform="rotate(54.000002)" />
        <rect
           style="fill:#b96bff;fill-opacity:1;stroke-width:1.1205281"
           id="rect1282-9-0-7"
           width="0.93750012"
           height="9.3750191"
           x="1084.2424"
           y="398.49423"
           ry="0"
           transform="rotate(60.000002)" />
        <rect
           style="fill:#b96bff;fill-opacity:1;stroke-width:1.1205281"
           id="rect1282-8-3-8-3"
           width="0.93750012"
           height="9.3750191"
           x="1130.2438"
           y="282.38904"
           ry="0"
           transform="rotate(65.999995)" />
        <rect
           style="fill:#b96bff;fill-opacity:1;stroke-width:1.1205281"
           id="rect1282-1-0-1-0"
           width="0.93750012"
           height="9.3750191"
           x="1163.8568"
           y="162.11095"
           ry="0"
           transform="rotate(72.000002)" />
        <rect
           style="fill:#b96bff;fill-opacity:1;stroke-width:1.1205281"
           id="rect1282-8-0-2-9-0"
           width="0.93750012"
           height="9.3750191"
           x="1184.7133"
           y="38.978481"
           ry="0"
           transform="rotate(78.000002)" />
        <rect
           style="fill:#b96bff;fill-opacity:1;stroke-width:1.1205281"
           id="rect1282-9-6-8-1"
           width="0.93750012"
           height="9.3750191"
           x="1192.5846"
           y="-85.659477"
           ry="0"
           transform="rotate(84.000002)" />
        <rect
           style="fill:#b96bff;fill-opacity:1;stroke-width:1.1205281"
           id="rect1282-8-3-4-1-5"
           width="0.93750012"
           height="9.3750191"
           x="1187.3845"
           y="-210.43761"
           ry="0"
           transform="rotate(90.000003)" />
      </g>
    </g>
    <path
       style="fill:#b96bff;fill-opacity:1;stroke-width:1"
       d="m 130,120 a 9.9999998,9.9999998 0 0 0 -10,10 9.9999998,9.9999998 0 0 0 10,10 9.9999998,9.9999998 0 0 0 10,-10 9.9999998,9.9999998 0 0 0 -10,-10 z m 0,5 a 4.9999999,4.9999999 0 0 1 5,5 4.9999999,4.9999999 0 0 1 -5,5 4.9999999,4.9999999 0 0 1 -5,-5 4.9999999,4.9999999 0 0 1 5,-5 z"
       id="HandCenterScrew"
       inkscape:connector-curvature="0"
       transform="matrix(0.93750012,0,0,0.93750012,111.99998,944.10331)" />
    <g
       id="MinuteHand">
      <path
         sodipodi:nodetypes="cssscc"
         inkscape:connector-curvature="0"
         id="rect6467"
         d="m 234.81249,1073.4783 1e-5,60.9375 c 0,0.5194 -0.41812,0.9375 -0.9375,0.9375 -0.51937,0 -0.9375,-0.4181 -0.9375,-0.9375 l -1e-5,-60.9375 z"
         style="fill:#b96bff;fill-opacity:1;stroke-width:0.62974596" />
      <rect
         y="1064.1033"
         x="231.99998"
         height="6.5624552"
         width="3.7500005"
         id="rect6494"
         style="fill:#008000;fill-opacity:0;stroke-width:1.10926127" />
    </g>
    <g
       id="SecondHand">
      <path
         sodipodi:nodetypes="cccc"
         inkscape:connector-curvature="0"
         id="rect6472"
         d="m 229.18749,1145.6658 h 9.375 l -4.68751,6.5625 z"
         style="fill:#b96bff;fill-opacity:1;stroke-width:0.93750012" />
      <rect
         y="1064.1033"
         x="231.99998"
         height="3.7499552"
         width="3.7500005"
         id="rect6500"
         style="fill:#ffff00;fill-opacity:0;stroke-width:1.32581735" />
    </g>
    <g
       id="HourHand">
      <path
         sodipodi:nodetypes="cssscc"
         inkscape:connector-curvature="0"
         id="rect6506"
         d="m 235.74999,1073.4783 v 40.3125 c 0,1.0388 -0.83625,1.875 -1.87501,1.875 -1.03875,0 -1.875,-0.8363 -1.875,-1.875 l 1e-5,-40.3125 z"
         style="fill:#b96bff;fill-opacity:1;stroke-width:0.83852559" />
      <rect
         y="1064.1033"
         x="231.06248"
         height="7.4999557"
         width="5.625001"
         id="rect6509"
         style="fill:#ff00ff;fill-opacity:0;stroke-width:1.08252859" />
    </g>
  </g>
</svg>
