<?xml version="1.0" encoding="UTF-8" standalone="no"?>
<!-- Created with Inkscape (http://www.inkscape.org/) -->

<svg
   xmlns:dc="http://purl.org/dc/elements/1.1/"
   xmlns:cc="http://creativecommons.org/ns#"
   xmlns:rdf="http://www.w3.org/1999/02/22-rdf-syntax-ns#"
   xmlns:svg="http://www.w3.org/2000/svg"
   xmlns="http://www.w3.org/2000/svg"
   xmlns:sodipodi="http://sodipodi.sourceforge.net/DTD/sodipodi-0.dtd"
   xmlns:inkscape="http://www.inkscape.org/namespaces/inkscape"
   width="124"
   height="52"
   viewBox="0 0 32.808331 13.758333"
   id="svg2"
   version="1.1"
   inkscape:version="0.92.3 (2405546, 2018-03-11)"
   sodipodi:docname="configuration-icons.svgz">
  <defs
     id="defs4">
    <style
       type="text/css"
       id="current-color-scheme">
      .ColorScheme-Text {
        color:#31363b;
        stop-color:#31363b;
      }
      .ColorScheme-Background {
        color:#eff0f1;
        stop-color:#eff0f1;
      }
      .ColorScheme-Highlight {
        color:#3daee9;
        stop-color:#3daee9;
      }
      .ColorScheme-ViewText {
        color:#31363b;
        stop-color:#31363b;
      }
      .ColorScheme-ViewBackground {
        color:#fcfcfc;
        stop-color:#fcfcfc;
      }
      .ColorScheme-ViewHover {
        color:#93cee9;
        stop-color:#93cee9;
      }
      .ColorScheme-ViewFocus{
        color:#3daee9;
        stop-color:#3daee9;
      }
      .ColorScheme-ButtonText {
        color:#31363b;
        stop-color:#31363b;
      }
      .ColorScheme-ButtonBackground {
        color:#eff0f1;
        stop-color:#eff0f1;
      }
      .ColorScheme-ButtonHover {
        color:#93cee9;
        stop-color:#93cee9;
      }
      .ColorScheme-ButtonFocus{
        color:#3daee9;
        stop-color:#3daee9;
      }
      </style>
    <inkscape:perspective
       id="perspective4146"
       inkscape:persp3d-origin="11.999999 : 7.9999997 : 1"
       inkscape:vp_z="23.999998 : 11.999999 : 1"
       inkscape:vp_y="0 : 999.99995 : 0"
       inkscape:vp_x="0 : 11.999999 : 1"
       sodipodi:type="inkscape:persp3d" />
    <inkscape:perspective
       id="perspective4090"
       inkscape:persp3d-origin="11.999999 : 7.9999997 : 1"
       inkscape:vp_z="23.999998 : 11.999999 : 1"
       inkscape:vp_y="0 : 999.99995 : 0"
       inkscape:vp_x="0 : 11.999999 : 1"
       sodipodi:type="inkscape:persp3d" />
  </defs>
  <sodipodi:namedview
     id="base"
     pagecolor="#ffffff"
     bordercolor="#000000"
     borderopacity="1"
     inkscape:pageopacity="0"
     inkscape:pageshadow="2"
     inkscape:zoom="1.1750221"
     inkscape:cx="117.60479"
     inkscape:cy="-35.656086"
     inkscape:document-units="px"
     inkscape:current-layer="layer1"
     showgrid="true"
     units="px"
     inkscape:showpageshadow="false"
     borderlayer="true"
     inkscape:window-width="1366"
     inkscape:window-height="717"
     inkscape:window-x="0"
     inkscape:window-y="22"
     inkscape:window-maximized="1"
     fit-margin-top="0"
     fit-margin-left="0"
     fit-margin-right="0"
     fit-margin-bottom="0">
    <inkscape:grid
       type="xygrid"
       id="grid1097" />
  </sodipodi:namedview>
  <metadata
     id="metadata7">
    <rdf:RDF>
      <cc:Work
         rdf:about="">
        <dc:format>image/svg+xml</dc:format>
        <dc:type
           rdf:resource="http://purl.org/dc/dcmitype/StillImage" />
        <dc:title />
      </cc:Work>
    </rdf:RDF>
  </metadata>
  <g
     inkscape:label="Capa 1"
     inkscape:groupmode="layer"
     id="layer1"
     transform="translate(0.5291667,-249.37493)">
    <g
       style="clip-rule:evenodd;fill-rule:evenodd;stroke-linejoin:round;stroke-miterlimit:1.41420996"
       id="delete"
       transform="matrix(0.26458332,0,0,0.26458332,4.2333331,258.89993)">
      <path
         inkscape:connector-curvature="0"
         id="path2"
         style="fill:#ff485f;fill-opacity:1"
         d="M 11,15 H 5 C 3.896,15 3,14.104 3,13 V 4 c 0,0 1,0 1,0 0,0 0,9 0,9 0,0.552 0.448,1 1,1 h 6 c 0.552,0 1,-0.448 1,-1 V 4 c 0,0 1,0 1,0 0,0 0,9 0,9 0,1.104 -0.896,2 -2,2 z M 7,5 v 8 H 6 V 5 Z m 3,0 v 8 H 9 V 5 Z m 1,-2 h 4 V 4 H 1 V 3 H 5 V 1 h 6 z M 10,2 H 6 v 1 h 4 z" />
      <rect
         ry="0.87084872"
         y="0"
         x="0"
         height="16"
         width="16"
         id="rect817"
         style="opacity:1;fill:#ee4a50;fill-opacity:0;stroke-width:1.00618851;stroke-miterlimit:1.41420996;stroke-dasharray:none" />
    </g>
    <g
       style="clip-rule:evenodd;fill-rule:evenodd;stroke-linejoin:round;stroke-miterlimit:1.41420996"
       id="menu"
       transform="matrix(0.26458332,0,0,0.26458332,-0.5291667,249.37493)">
      <path
         inkscape:connector-curvature="0"
         id="path2-2"
         d="m 6,1 v 4 h 4 V 1 Z M 7,2 H 9 V 4 H 7 Z M 6,6 v 4 h 4 V 6 Z M 7,7 H 9 V 9 H 7 Z m -1,4 v 4 h 4 v -4 z m 1,1 h 2 v 2 H 7 Z"
         style="fill:#c3c7d1;fill-opacity:1" />
      <rect
         ry="0.68208092"
         y="0"
         x="0"
         height="16"
         width="16"
         id="rect822"
         style="opacity:1;fill:#ee4a50;fill-opacity:0;stroke-width:0.69736469;stroke-miterlimit:1.41420996;stroke-dasharray:none" />
    </g>
    <g
       style="clip-rule:evenodd;fill-rule:evenodd;stroke-linejoin:round;stroke-miterlimit:1.41420996"
       id="help"
       transform="matrix(0.26458332,0,0,0.26458332,-0.5291667,258.89993)">
      <path
         inkscape:connector-curvature="0"
         id="path2-0"
         style="fill:#c3c7d1;fill-opacity:1"
         d="m 15,15 h -3 c 0,0 1.269,-0.755 1.769,-1.255 C 14.269,13.245 15,12 15,12 Z M 1,15 H 4 C 4,15 2.731,14.245 2.231,13.745 1.731,13.245 1,12 1,12 Z M 3.05,3.05 c 2.732,-2.732 7.168,-2.732 9.9,0 2.732,2.732 2.732,7.168 0,9.9 -2.732,2.732 -7.168,2.732 -9.9,0 -2.732,-2.732 -2.732,-7.168 0,-9.9 z m 3.915,8.814 -1.552,1.551 c 1.631,0.778 3.543,0.778 5.174,0 L 9.035,11.864 c -0.677,0.18 -1.393,0.18 -2.07,0 z m 3.067,-0.418 1.445,1.445 c 0.268,-0.191 0.525,-0.407 0.766,-0.648 0.241,-0.241 0.457,-0.498 0.648,-0.766 l -1.445,-1.445 c -0.167,0.284 -0.373,0.552 -0.618,0.796 -0.244,0.245 -0.512,0.451 -0.796,0.618 z M 4.554,10.032 3.109,11.477 c 0.191,0.268 0.407,0.525 0.648,0.766 0.241,0.241 0.498,0.457 0.766,0.648 L 5.968,11.446 C 5.684,11.279 5.416,11.073 5.172,10.828 4.927,10.584 4.721,10.316 4.554,10.032 Z M 5.879,5.879 c 1.17,-1.171 3.072,-1.171 4.242,0 1.171,1.17 1.171,3.072 0,4.242 -1.17,1.171 -3.072,1.171 -4.242,0 -1.171,-1.17 -1.171,-3.072 0,-4.242 z m 5.985,1.086 c 0.18,0.677 0.18,1.393 0,2.07 l 1.551,1.552 c 0.778,-1.631 0.778,-3.543 0,-5.174 z M 2.585,5.413 c -0.778,1.631 -0.778,3.543 0,5.174 L 4.111,9.061 4.156,9.105 C 3.956,8.407 3.949,7.666 4.136,6.965 Z M 4.523,3.109 C 4.255,3.3 3.998,3.516 3.757,3.757 3.516,3.998 3.3,4.255 3.109,4.523 L 4.554,5.968 C 4.721,5.684 4.927,5.416 5.172,5.172 5.416,4.927 5.684,4.721 5.968,4.554 Z m 5.509,1.445 c 0.284,0.167 0.552,0.373 0.796,0.618 0.245,0.244 0.451,0.512 0.618,0.796 L 12.891,4.523 C 12.7,4.255 12.484,3.998 12.243,3.757 12.002,3.516 11.745,3.3 11.477,3.109 Z M 5.413,2.585 6.939,4.111 6.895,4.156 c 0.698,-0.2 1.439,-0.207 2.14,-0.02 L 10.587,2.585 C 8.956,1.807 7.044,1.807 5.413,2.585 Z M 15,1 V 4 C 15,4 14.269,2.755 13.769,2.255 13.269,1.755 12.003,1.002 12,1 Z M 1,1 H 4 C 4,1 2.731,1.755 2.231,2.255 1.731,2.755 1,4 1,4 Z" />
      <rect
         ry="0.7662338"
         y="0"
         x="0"
         height="16"
         width="16"
         id="rect817-5"
         style="opacity:1;fill:#ee4a50;fill-opacity:0;stroke-width:0.76999295;stroke-miterlimit:1.41420996;stroke-dasharray:none" />
    </g>
    <g
       style="clip-rule:evenodd;fill-rule:evenodd;stroke-linejoin:round;stroke-miterlimit:1.41420996"
       id="add"
       transform="matrix(0.26458332,0,0,0.26458332,8.9958328,258.89993)">
      <path
         inkscape:connector-curvature="0"
         id="path2-3"
         style="fill:#c3c7d1;fill-opacity:1"
         d="M 7,7 V 2 h 2 v 5 h 5 V 9 H 9 v 5 H 7 V 9 H 2 V 7 Z" />
      <rect
         ry="0.99159664"
         y="0"
         x="0"
         height="16"
         width="16"
         id="rect817-8"
         style="opacity:1;fill:#ee4a50;fill-opacity:0;stroke-width:0.99368644;stroke-miterlimit:1.41420996;stroke-dasharray:none" />
    </g>
    <g
       style="clip-rule:evenodd;fill-rule:evenodd;stroke-linejoin:round;stroke-miterlimit:1.41420996"
       id="remove"
       transform="matrix(0.26458332,0,0,0.26458332,13.758333,258.89993)">
      <rect
         id="rect2"
         style="fill:#c3c7d1;fill-opacity:1"
         height="2"
         width="12"
         y="7"
         x="2" />
      <rect
         ry="1.0488889"
         y="0"
         x="0"
         height="16"
         width="16"
         id="rect817-1"
         style="opacity:1;fill:#ee4a50;fill-opacity:0;stroke-width:0.97951454;stroke-miterlimit:1.41420996;stroke-dasharray:none" />
    </g>
    <g
       style="clip-rule:evenodd;fill-rule:evenodd;stroke-linejoin:round;stroke-miterlimit:1.41420996"
       id="filter"
       transform="matrix(0.26458332,0,0,0.26458332,18.520832,258.89993)">
      <path
         inkscape:connector-curvature="0"
         id="path2-91"
         d="m 6,12.268 v -3 L 3,4.072 V 2 H 13 V 4.072 L 12,5.804 10,9.268 V 14 H 9 Z M 12,3 H 4 V 3.804 L 7,9 v 2.691 l 2,1.154 V 9 l 3,-5.196 z"
         style="fill:#c3c7d1;fill-opacity:1" />
      <rect
         ry="1.1683168"
         y="0"
         x="0"
         height="16"
         width="16"
         id="rect817-88"
         style="opacity:1;fill:#ee4a50;fill-opacity:0;stroke-width:1.05868995;stroke-miterlimit:1.41420996;stroke-dasharray:none" />
    </g>
    <g
       style="clip-rule:evenodd;fill-rule:evenodd;stroke-linejoin:round;stroke-miterlimit:1.41420996"
       id="size-diagonal-tl2br"
       transform="matrix(-0.26458332,0,0,0.26458332,3.7041664,254.13748)">
      <path
         inkscape:connector-curvature="0"
         style="fill:#c3c7d1;fill-opacity:1"
         id="path2-5"
         d="m 7,14 h 6 c 0.552,0 1,-0.448 1,-1 V 7 h 1 v 6 c 0,1.104 -0.896,2 -2,2 H 7 Z M 9,2 H 3 C 2.448,2 2,2.448 2,3 V 9 H 1 V 3 C 1,1.896 1.896,1 3,1 h 6 z" />
      <path
         inkscape:connector-curvature="0"
         style="fill:#c3c7d1;fill-opacity:1"
         id="path4"
         d="M 5.525,9.768 6.232,10.475 2.707,14 H 5 v 1 H 1 v -4 h 1 v 2.293 z M 15,5 H 14 V 2.707 L 10.475,6.232 9.768,5.525 13.293,2 H 11 V 1 h 4 z" />
      <rect
         ry="0.921875"
         y="0"
         x="0"
         height="16"
         width="16"
         id="rect822-1"
         style="opacity:1;fill:#ffffff;fill-opacity:0;stroke-width:0.90099967;stroke-miterlimit:1.41420996;stroke-dasharray:none" />
    </g>
    <g
       style="clip-rule:evenodd;fill-rule:evenodd;stroke-linejoin:round;stroke-miterlimit:1.41420996"
       id="maximize"
       transform="matrix(0.26458332,0,0,0.26458332,4.2333331,254.13743)">
      <path
         inkscape:connector-curvature="0"
         id="path2-20"
         d="M 3,1 C 1.896,1 1,1.896 1,3 v 10 c 0,1.104 0.896,2 2,2 h 10 c 1.104,0 2,-0.896 2,-2 V 7 h -1 v 6 c 0,0.552 -0.448,1 -1,1 H 3 C 2.448,14 2,13.552 2,13 V 3 C 2,2.448 2.448,2 3,2 H 9 V 1 Z m 8,0 v 1 h 2.292969 L 9.7675781,5.5253906 10.474609,6.2324219 14,2.7070312 V 5 h 1 V 1 Z"
         style="fill:#c3c7d1;fill-opacity:1" />
      <rect
         ry="1.0875576"
         y="0"
         x="0"
         height="16"
         width="16"
         id="rect822-41"
         style="opacity:1;fill:#ffffff;fill-opacity:0;stroke-width:0.90699488;stroke-miterlimit:1.41420996;stroke-dasharray:none" />
    </g>
    <g
       style="clip-rule:evenodd;fill-rule:evenodd;stroke-linejoin:round;stroke-miterlimit:1.41420996"
       id="unmaximize"
       transform="matrix(0.26458332,0,0,0.26458332,8.9958328,254.13743)">
      <path
         inkscape:connector-curvature="0"
         id="path2-53"
         d="M 3,1 C 1.896,1 1,1.896 1,3 v 10 c 0,1.104 0.896,2 2,2 h 10 c 1.104,0 2,-0.896 2,-2 V 8 h -1 v 5 c 0,0.552 -0.448,1 -1,1 H 3 C 2.448,14 2,13.552 2,13 V 3 C 2,2.448 2.448,2 3,2 H 8 V 1 Z M 13.525391,1.7675781 10,5.2929688 V 3 H 9 v 4 h 4 V 6 h -2.292969 l 3.525391,-3.5253906 z"
         style="fill:#c3c7d1;fill-opacity:1" />
      <rect
         ry="0.89733839"
         y="0"
         x="0"
         height="16"
         width="16"
         id="rect823"
         style="opacity:1;fill:#ffffff;fill-opacity:0;stroke-width:0.95955569;stroke-miterlimit:1.41420996;stroke-dasharray:none" />
    </g>
    <g
       style="clip-rule:evenodd;fill-rule:evenodd;stroke-linejoin:round;stroke-miterlimit:1.41420996"
       id="size-diagonal-tr2bl"
       transform="matrix(0.26458332,0,0,0.26458332,28.045832,249.37493)">
      <path
         inkscape:connector-curvature="0"
         style="fill:#c3c7d1;fill-opacity:1"
         id="path2-5-5"
         d="m 7,14 h 6 c 0.552,0 1,-0.448 1,-1 V 7 h 1 v 6 c 0,1.104 -0.896,2 -2,2 H 7 Z M 9,2 H 3 C 2.448,2 2,2.448 2,3 V 9 H 1 V 3 C 1,1.896 1.896,1 3,1 h 6 z" />
      <path
         inkscape:connector-curvature="0"
         style="fill:#c3c7d1;fill-opacity:1"
         id="path4-3"
         d="M 5.525,9.768 6.232,10.475 2.707,14 H 5 v 1 H 1 v -4 h 1 v 2.293 z M 15,5 H 14 V 2.707 L 10.475,6.232 9.768,5.525 13.293,2 H 11 V 1 h 4 z" />
      <rect
         ry="0.921875"
         y="0"
         x="0"
         height="16"
         width="16"
         id="rect822-1-3"
         style="opacity:1;fill:#ffffff;fill-opacity:0;stroke-width:0.90099967;stroke-miterlimit:1.41420996;stroke-dasharray:none" />
    </g>
    <g
       style="clip-rule:evenodd;fill-rule:evenodd;stroke-linejoin:round;stroke-miterlimit:1.41420996"
       id="status"
       transform="matrix(0.26458332,0,0,0.26458332,13.758333,254.13743)">
      <path
         inkscape:connector-curvature="0"
         id="rect842"
         d="M 3,1 C 1.892,1 1,1.892 1,3 v 4 1 5 c 0,1.108 0.892,2 2,2 h 10 c 1.108,0 2,-0.892 2,-2 V 9 8 3 C 15,1.892 14.108,1 13,1 Z m 0,1 h 10 c 0.554,0 1,0.446 1,1 V 8 H 12.023438 L 10.474609,3.3417969 9.53125,3.3242188 6.9335938,10.25 5.3085938,7 H 2 V 3 C 2,2.446 2.446,2 3,2 Z M 9.9726562,5.0019531 11.300781,9 H 14 v 4 c 0,0.554 -0.446,1 -1,1 H 3 C 2.446,14 2,13.554 2,13 V 8 h 2.6914062 l 1.8613282,3.722656 0.9160156,-0.04687 z"
         style="opacity:1;fill:#c3c7d1;fill-opacity:1;stroke-width:1;stroke-miterlimit:1.41420996;stroke-dasharray:none" />
      <rect
         ry="1"
         y="0"
         x="0"
         height="16"
         width="16"
         id="rect865"
         style="opacity:1;fill:#ffffff;fill-opacity:0;stroke-width:1;stroke-miterlimit:1.41420996;stroke-dasharray:none" />
    </g>
    <g
       style="clip-rule:evenodd;fill-rule:evenodd;stroke-linejoin:round;stroke-miterlimit:1.41420996"
       id="collapse"
       transform="matrix(0.26458332,0,0,0.26458332,23.283332,254.13743)">
      <path
         inkscape:connector-curvature="0"
         id="path2-1"
         style="fill:#c3c7d1;fill-opacity:1"
         d="m 15,6 v 4 H 1 V 6 Z M 14,7 H 2 v 2 h 12 z" />
      <path
         inkscape:connector-curvature="0"
         id="path4-8"
         style="fill:#c3c7d1;fill-opacity:1"
         d="M 10,2 H 6 l 2,2 z" />
      <path
         inkscape:connector-curvature="0"
         id="path6-46"
         style="fill:#c3c7d1;fill-opacity:1"
         d="M 10,14 H 6 l 2,-2 z" />
      <rect
         ry="0.80272108"
         y="0"
         x="0"
         height="16"
         width="16"
         id="rect821-2"
         style="opacity:1;fill:#ffffff;fill-opacity:0;stroke-width:0.88844943;stroke-miterlimit:1.41420996;stroke-dasharray:none" />
    </g>
    <g
       style="clip-rule:evenodd;fill-rule:evenodd;stroke-linejoin:round;stroke-miterlimit:1.41420996"
       id="restore"
       transform="matrix(0.26458332,0,0,0.26458332,28.045832,254.13743)">
      <path
         inkscape:connector-curvature="0"
         id="path2-18"
         style="fill:#c3c7d1;fill-opacity:1"
         d="m 15,6 v 4 H 1 V 6 Z M 14,7 H 2 v 2 h 12 z" />
      <path
         inkscape:connector-curvature="0"
         id="path4-6"
         style="fill:#c3c7d1;fill-opacity:1"
         d="M 10,4 H 6 L 8,2 Z" />
      <path
         inkscape:connector-curvature="0"
         id="path6"
         style="fill:#c3c7d1;fill-opacity:1"
         d="M 10,12 H 6 l 2,2 z" />
      <rect
         ry="0.80272108"
         y="0"
         x="0"
         height="16"
         width="16"
         id="rect821"
         style="opacity:1;fill:#ffffff;fill-opacity:0;stroke-width:0.88844943;stroke-miterlimit:1.41420996;stroke-dasharray:none" />
    </g>
    <g
       style="clip-rule:evenodd;fill-rule:evenodd;stroke-linejoin:round;stroke-miterlimit:1.41420996"
       id="return-to-source"
       transform="matrix(0.26458332,0,0,0.26458332,18.520832,254.13743)">
      <path
         inkscape:connector-curvature="0"
         id="path2-12"
         style="fill:#c3c7d1;fill-opacity:1"
         d="M 14,6 H 2 v 4 H 14 Z M 10,14 8,12 6,14 Z M 13,9 H 3 V 7 H 13 Z M 8,4 6,2 h 4 z m 7,9 c 0,1.104 -0.896,2 -2,2 H 3 C 1.896,15 1,14.104 1,13 V 3 C 1,1.896 1.896,1 3,1 h 10 c 1.104,0 2,0.896 2,2 z" />
      <rect
         ry="0.64657539"
         y="0"
         x="0"
         height="16"
         width="16"
         id="rect817-4"
         style="opacity:1;fill:#ffffff;fill-opacity:0;stroke-width:0.91066086;stroke-miterlimit:1.41420996;stroke-dasharray:none" />
    </g>
    <g
       style="clip-rule:evenodd;fill-rule:evenodd;stroke-linejoin:round;stroke-miterlimit:1.41420996"
       id="move"
       transform="matrix(0.26458332,0,0,0.26458332,13.758333,249.37493)">
      <path
         inkscape:connector-curvature="0"
         id="path2-33"
         d="M 8,1 6,3 h 4 z M 7,5 C 5.896,5 5,5.896 5,7 v 2 c 0,1.104 0.896,2 2,2 h 2 c 1.104,0 2,-0.896 2,-2 V 7 C 11,5.896 10.104,5 9,5 Z M 3,6 1,8 3,10 Z m 4,0 h 2 c 0.552,0 1,0.448 1,1 v 2 c 0,0.552 -0.448,1 -1,1 H 7 C 6.448,10 6,9.552 6,9 V 7 C 6,6.448 6.448,6 7,6 Z m 6,0 v 4 l 2,-2 z m -7,7 2,2 2,-2 z"
         style="fill:#c3c7d1;fill-opacity:1" />
      <rect
         ry="1.2896175"
         y="0"
         x="0"
         height="16"
         width="16"
         id="rect856"
         style="opacity:1;fill:#ffffff;fill-opacity:0;stroke-width:1.05974615;stroke-miterlimit:1.41420996;stroke-dasharray:none" />
    </g>
    <g
       style="clip-rule:evenodd;fill-rule:evenodd;stroke-linejoin:round;stroke-miterlimit:1.41420996"
       id="size-vertical"
       transform="matrix(0.26458332,0,0,0.26458332,18.520832,249.37493)">
      <path
         inkscape:connector-curvature="0"
         id="path2-5-1"
         d="M 8,1 6,3 h 4 z M 7,5 C 5.896,5 5,5.8959997 5,6.9999998 V 8.9999999 C 5,10.104 5.896,11 7,11 h 2 c 1.104,0 2,-0.896 2,-2.0000001 V 6.9999998 C 11,5.8959998 10.104,5 9,5 Z m 0,0.9999998 h 2 c 0.552,0 1,0.4480001 1,1 v 2.0000001 c 0,0.5519999 -0.448,1 -1,1 H 7 c -0.552,0 -1,-0.4480001 -1,-1 V 6.9999998 c 0,-0.5519999 0.448,-1 1,-1 z M 6,13 l 2,2 2,-2 z"
         style="clip-rule:evenodd;fill:#c3c7d1;fill-rule:evenodd;stroke-linejoin:round;stroke-miterlimit:1.41420996;fill-opacity:1" />
      <rect
         ry="0.91828793"
         y="0"
         x="0"
         height="16"
         width="16"
         id="rect874"
         style="opacity:1;fill:#ffffff;fill-opacity:0;stroke-width:0.96649909;stroke-miterlimit:1.41420996;stroke-dasharray:none" />
    </g>
    <g
       style="clip-rule:evenodd;fill-rule:evenodd;stroke-linejoin:round;stroke-miterlimit:1.41420996"
       id="size-horizontal"
       transform="matrix(0,0.26458332,-0.26458332,0,27.516665,249.37493)">
      <path
         inkscape:connector-curvature="0"
         id="path2-5-1-1"
         d="M 8,1 6,3 h 4 z M 7,5 C 5.896,5 5,5.8959997 5,6.9999998 V 8.9999999 C 5,10.104 5.896,11 7,11 h 2 c 1.104,0 2,-0.896 2,-2.0000001 V 6.9999998 C 11,5.8959998 10.104,5 9,5 Z m 0,0.9999998 h 2 c 0.552,0 1,0.4480001 1,1 v 2.0000001 c 0,0.5519999 -0.448,1 -1,1 H 7 c -0.552,0 -1,-0.4480001 -1,-1 V 6.9999998 c 0,-0.5519999 0.448,-1 1,-1 z M 6,13 l 2,2 2,-2 z"
         style="clip-rule:evenodd;fill:#c3c7d1;fill-rule:evenodd;stroke-linejoin:round;stroke-miterlimit:1.41420996;fill-opacity:1" />
      <rect
         ry="0.91828793"
         y="0"
         x="0"
         height="16"
         width="16"
         id="rect874-2"
         style="opacity:1;fill:#ffffff;fill-opacity:0;stroke-width:0.96649909;stroke-miterlimit:1.41420996;stroke-dasharray:none" />
    </g>
    <g
       style="clip-rule:evenodd;fill-rule:evenodd;stroke-linejoin:round;stroke-miterlimit:1.41420996"
       id="rotate"
       transform="matrix(0.26458332,0,0,0.26458332,8.9958328,249.37493)">
      <path
         inkscape:connector-curvature="0"
         id="path2-02"
         d="M 1,1 V 8 H 5 V 1 Z M 2,2 H 4 V 7 H 2 Z m 4,1 v 1 h 3 c 1.102,0 1.996,0.8931406 2,1.9941406 V 6 8.0859375 L 9.3808594,6.4648438 8.671875,7.171875 11.501953,10 14.328125,7.171875 13.621094,6.4648438 12,8.0878906 V 6 C 12,4.344 10.656,3 9,3 Z m 2,8 v 4 h 7 v -4 z m 1,1 h 5 v 2 H 9 Z"
         style="fill:#c3c7d1;fill-opacity:1" />
      <rect
         ry="1.2040817"
         y="0"
         x="0"
         height="16"
         width="16"
         id="rect822-8"
         style="opacity:1;fill:#ffffff;fill-opacity:0;stroke-width:1.11884785;stroke-miterlimit:1.41420996;stroke-dasharray:none" />
    </g>
    <g
       id="close"
       transform="translate(-13.274144,-0.06375452)">
      <circle
         id="circle2-7"
         style="clip-rule:evenodd;fill:#ff485f;fill-rule:evenodd;stroke-width:0.26458332;stroke-linejoin:round;stroke-miterlimit:1.41420996;fill-opacity:1"
         r="1.8520832"
         cy="261.08035"
         cx="38.674141" />
      <g
         transform="translate(0.0449676,-0.20083936)"
         id="g944">
        <path
           inkscape:connector-curvature="0"
           d="m 39.658151,260.4393 -0.187086,-0.18709 -1.870871,1.87087 0.187087,0.18709 z"
           style="clip-rule:evenodd;fill:#ffffff;fill-rule:evenodd;stroke-width:0.28990012;stroke-linejoin:round;stroke-miterlimit:1.41420996"
           id="path4-7-5" />
        <path
           inkscape:connector-curvature="0"
           d="m 37.600197,260.4393 0.187089,-0.18708 1.87087,1.87087 -0.187089,0.18708 z"
           style="clip-rule:evenodd;fill:#ffffff;fill-rule:evenodd;stroke-width:0.28989902;stroke-linejoin:round;stroke-miterlimit:1.41420996"
           id="path6-4-3" />
      </g>
      <rect
         y="258.96368"
         x="36.557476"
         height="4.2333331"
         width="4.2333331"
         id="rect826-5"
         style="clip-rule:evenodd;fill:#ffffff;fill-opacity:0;fill-rule:evenodd;stroke-width:0.24372686;stroke-linejoin:round;stroke-miterlimit:1.41420996" />
    </g>
    <g
       id="configure"
       transform="matrix(0.26458332,0,0,0.26458332,4.2333331,249.37493)">
      <path
         id="path825"
         d="M 5.5,2 C 4.3135898,2.0019827 3.2919682,2.8375582 3.0546875,4 H 1 V 5 H 3.0507812 C 3.2883568,6.1638781 4.3121219,6.9998713 5.5,7 6.8807119,7 8,5.8807119 8,4.5 8,3.1192881 6.8807119,2 5.5,2 Z m 0,1 C 6.3284271,3 7,3.6715729 7,4.5 7,5.3284271 6.3284271,6 5.5,6 4.6715729,6 4,5.3284271 4,4.5 4,3.6715729 4.6715729,3 5.5,3 Z M 7,4 v 1 h 8 V 4 Z m 5.5,5 C 11.119288,9 10,10.119288 10,11.5 10,12.880712 11.119288,14 12.5,14 13.880712,14 15,12.880712 15,11.5 15,10.119288 13.880712,9 12.5,9 Z m 0,1 C 13.328427,10 14,10.671573 14,11.5 14,12.328427 13.328427,13 12.5,13 11.671573,13 11,12.328427 11,11.5 11,10.671573 11.671573,10 12.5,10 Z M 1,11 v 1 h 10 v -1 z"
         style="opacity:1;fill:#c3c7d1;fill-opacity:1;stroke:none"
         inkscape:connector-curvature="0"
         sodipodi:nodetypes="ccccccscssssscccccssssssssssccccc" />
      <rect
         y="0"
         x="0"
         height="16"
         width="16"
         id="rect852"
         style="opacity:1;fill:#808000;fill-opacity:0;stroke:none" />
    </g>
  </g>
</svg>
