<?xml version="1.0" encoding="UTF-8" standalone="no"?>
<!-- Created with Inkscape (http://www.inkscape.org/) -->

<svg
   xmlns:dc="http://purl.org/dc/elements/1.1/"
   xmlns:cc="http://creativecommons.org/ns#"
   xmlns:rdf="http://www.w3.org/1999/02/22-rdf-syntax-ns#"
   xmlns:svg="http://www.w3.org/2000/svg"
   xmlns="http://www.w3.org/2000/svg"
   xmlns:sodipodi="http://sodipodi.sourceforge.net/DTD/sodipodi-0.dtd"
   xmlns:inkscape="http://www.inkscape.org/namespaces/inkscape"
   id="svg2"
   sodipodi:version="0.32"
   inkscape:version="0.92.4 5da689c313, 2019-01-14"
   width="23"
   height="57"
   sodipodi:docname="frame.svg"
   inkscape:output_extension="org.inkscape.output.svgz.inkscape"
   inkscape:export-filename="/home/pinheiro/Documents/pics/estilo/plasma/wether.png"
   inkscape:export-xdpi="90"
   inkscape:export-ydpi="90"
   version="1.0">
  <sodipodi:namedview
     inkscape:window-height="1051"
     inkscape:window-width="1920"
     inkscape:pageshadow="2"
     inkscape:pageopacity="1"
     guidetolerance="10.0"
     gridtolerance="10.0"
     objecttolerance="10.0"
     borderopacity="1.0"
     bordercolor="#666666"
     pagecolor="#212226"
     id="base"
     inkscape:zoom="5.6568545"
     inkscape:cx="-114.38211"
     inkscape:cy="31.667795"
     inkscape:window-x="0"
     inkscape:window-y="0"
     inkscape:current-layer="svg2"
     showgrid="true"
     showguides="true"
     inkscape:guide-bbox="true"
     inkscape:snap-guide="false"
     inkscape:snap-bbox="true"
     inkscape:object-paths="true"
     inkscape:bbox-nodes="false"
     inkscape:snap-global="true"
     inkscape:object-nodes="true"
     inkscape:window-maximized="1"
     fit-margin-top="0"
     fit-margin-left="0"
     fit-margin-right="0"
     fit-margin-bottom="0"
     inkscape:bbox-paths="true">
    <inkscape:grid
       spacingy="1"
       spacingx="1"
       originy="4"
       originx="2"
       snapvisiblegridlinesonly="true"
       empspacing="5"
       enabled="true"
       visible="true"
       id="grid5592"
       type="xygrid" />
  </sodipodi:namedview>
  <metadata
     id="metadata7">
    <rdf:RDF>
      <cc:Work
         rdf:about="">
        <dc:format>image/svg+xml</dc:format>
        <dc:type
           rdf:resource="http://purl.org/dc/dcmitype/StillImage" />
        <dc:title></dc:title>
      </cc:Work>
      <cc:Work
         rdf:about="">
        <dc:format>image/svg+xml</dc:format>
        <dc:type
           rdf:resource="http://purl.org/dc/dcmitype/StillImage" />
      </cc:Work>
    </rdf:RDF>
  </metadata>
  <defs
     id="defs5" />
  <g
     inkscape:groupmode="layer"
     id="layer1"
     style="display:none;opacity:1"
     inkscape:label="layer1"
     transform="translate(-1593,-10.362177)" />
  <g
     inkscape:groupmode="layer"
     id="layer2"
     style="display:inline;opacity:1"
     inkscape:label="glow"
     transform="translate(-1593,-10.362177)" />
  <g
     transform="translate(836.061,-1490.2416)"
     id="g2424"
     style="display:none;opacity:1"
     inkscape:label="layer1" />
  <g
     transform="translate(836.061,-1490.2416)"
     id="g2426"
     style="display:inline;fill:#ffffff;fill-opacity:0.35294119;opacity:1"
     inkscape:label="glow" />
  <g
     style="fill:#ffffff;fill-opacity:0.35294119;opacity:1"
     transform="translate(882.0388,-521.3789)"
     id="g3429"
     inkscape:label="Layer 1" />
  <g
     style="fill:#ffffff;fill-opacity:0.35294119;opacity:1"
     transform="translate(2668.3293,-137.92082)"
     id="g19758"
     inkscape:label="Layer 1" />
  <g
     style="fill:#ffffff;fill-opacity:0.35294119;opacity:1"
     transform="translate(3773.1545,-1016.1902)"
     id="g3935"
     inkscape:label="Layer 1" />
  <g
     style="fill:#ffffff;fill-opacity:0.35294119;opacity:1"
     transform="translate(1375.2848,-1031.5374)"
     id="g8459"
     inkscape:label="Layer 1" />
  <g
     style="fill:#ffffff;fill-opacity:0.35294119;opacity:1"
     transform="translate(24.4673,297.07426)"
     id="g28391"
     inkscape:label="Layer 1" />
  <g
     style="fill:#ffffff;fill-opacity:0.35294119;opacity:1"
     transform="translate(1129.2925,-581.1951)"
     id="g28393"
     inkscape:label="Layer 1" />
  <g
     style="fill:#ffffff;fill-opacity:0.35294119;opacity:1"
     transform="translate(-1268.5772,-596.5423)"
     id="g28395"
     inkscape:label="Layer 1" />
  <g
     style="fill:#ffffff;fill-opacity:0.35294119;opacity:1"
     transform="translate(2170.9673,289.07426)"
     id="g6598"
     inkscape:label="Layer 1" />
  <g
     style="fill:#ffffff;fill-opacity:0.35294119;opacity:1"
     transform="translate(3275.7925,-589.1951)"
     id="g6640"
     inkscape:label="Layer 1" />
  <g
     style="fill:#ffffff;fill-opacity:0.35294119;opacity:1"
     transform="translate(877.9228,-604.54233)"
     id="g6716"
     inkscape:label="Layer 1" />
  <g
     id="g6850"
     transform="matrix(1,0,0,-1,-293,750.03126)"
     style="opacity:0.45945943;fill:#ffffff;fill-opacity:0.35294119" />
  <text
     id="text6990"
     y="247.00002"
     x="-69"
     style="font-size:14px;font-style:normal;font-variant:normal;font-weight:bold;font-stretch:normal;text-align:justify;line-height:125%;writing-mode:lr-tb;text-anchor:start;fill:#ffffff;fill-opacity:0.33333334;stroke:none;font-family:Gill Sans;-inkscape-font-specification:Bitstream Vera Sans Bold;;opacity:1"
     xml:space="preserve"><tspan
       y="247.00002"
       x="-69"
       id="tspan6992"
       sodipodi:role="line" /></text>
  <rect
     style="fill:#0000ff;fill-opacity:1;fill-rule:nonzero;stroke:none;opacity:1"
     id="hint-tile-center"
     width="2.0329318"
     height="2.077126"
     x="-19"
     y="-5.077126"
     rx="0"
     ry="2.077126" />
  <text
     id="text2705"
     y="231.5806"
     x="-45.722275"
     style="font-size:14px;font-style:normal;font-variant:normal;font-weight:bold;font-stretch:normal;text-align:justify;line-height:125%;writing-mode:lr-tb;text-anchor:start;fill:#ffffff;fill-opacity:0.33333334;stroke:none;font-family:Gill Sans;;opacity:1"
     xml:space="preserve"><tspan
       y="231.5806"
       x="-45.722275"
       id="tspan2707"
       sodipodi:role="line" /></text>
  <rect
     style="fill:#000080;fill-opacity:1;fill-rule:nonzero;stroke:none;opacity:1"
     id="plain-hint-top-margin"
     width="2"
     height="5"
     x="86"
     y="-14" />
  <rect
     y="24"
     x="86"
     height="5"
     width="2"
     id="plain-hint-bottom-margin"
     style="fill:#000080;fill-opacity:1;fill-rule:nonzero;stroke:none;opacity:1" />
  <rect
     y="4"
     x="45"
     height="2"
     width="5"
     id="plain-hint-left-margin"
     style="fill:#000080;fill-opacity:1;fill-rule:nonzero;stroke:none;opacity:1" />
  <rect
     style="fill:#000080;fill-opacity:1;fill-rule:nonzero;stroke:none;opacity:1"
     id="plain-hint-right-margin"
     width="5"
     height="2"
     x="121"
     y="4" />
  <rect
     inkscape:label="#rect4186"
     style="fill:#000080;fill-opacity:1;fill-rule:nonzero;stroke:none;opacity:1"
     id="raised-hint-bottom-margin"
     width="2"
     height="5"
     x="86"
     y="146" />
  <rect
     inkscape:label="#rect4188"
     y="124"
     x="123"
     height="2"
     width="5"
     id="raised-hint-right-margin"
     style="fill:#000080;fill-opacity:1;fill-rule:nonzero;stroke:none;opacity:1" />
  <rect
     inkscape:label="#rect4190"
     style="fill:#000080;fill-opacity:1;fill-rule:nonzero;stroke:none;opacity:1"
     id="raised-hint-left-margin"
     width="5"
     height="1.9999999"
     x="47"
     y="124" />
  <rect
     inkscape:label="#rect4192"
     y="106"
     x="86"
     height="5"
     width="2"
     id="raised-hint-top-margin"
     style="fill:#000080;fill-opacity:1;fill-rule:nonzero;stroke:none;opacity:1" />
  <rect
     inkscape:label="#rect4194"
     y="46"
     x="86"
     height="5"
     width="2"
     id="sunken-hint-top-margin"
     style="fill:#000080;fill-opacity:1;fill-rule:nonzero;stroke:none;opacity:1" />
  <rect
     inkscape:label="#rect4196"
     style="fill:#000080;fill-opacity:1;fill-rule:nonzero;stroke:none;opacity:1"
     id="sunken-hint-bottom-margin"
     width="2"
     height="5"
     x="86"
     y="84" />
  <rect
     inkscape:label="#rect4198"
     style="fill:#000080;fill-opacity:1;fill-rule:nonzero;stroke:none;opacity:1"
     id="sunken-hint-left-margin"
     width="5"
     height="1.9999999"
     x="47"
     y="64" />
  <rect
     inkscape:label="#rect4200"
     y="64"
     x="123"
     height="2"
     width="5"
     id="sunken-hint-right-margin"
     style="fill:#000080;fill-opacity:1;fill-rule:nonzero;stroke:none;opacity:1" />
  <g
     id="sunken-bottom"
     transform="matrix(1,0,0,-1,-321.14285,584.64795)">
    <path
       style="opacity:1;fill:#ffffff;fill-opacity:0.33333334;stroke:none"
       d="m 296.14285,557.64795 11,0 0,1 -11,0 z"
       id="path4712"
       inkscape:connector-curvature="0" />
    <path
       id="path4714"
       d="m 296.14285,564.64795 11,0 0,-6 -11,0 z"
       style="opacity:1;fill:#0a0b0f;fill-opacity:0.86274511;stroke:none"
       inkscape:connector-curvature="0"
       sodipodi:nodetypes="ccccc" />
  </g>
  <g
     transform="matrix(0,1,1,0,-589.64795,-287.14285)"
     id="sunken-left">
    <path
       inkscape:connector-curvature="0"
       id="path4720"
       d="m 296.14285,557.64795 11,0 0,1 -11,0 z"
       style="opacity:1;fill:#ffffff;fill-opacity:0.33333334;stroke:none" />
    <path
       sodipodi:nodetypes="ccccc"
       inkscape:connector-curvature="0"
       style="opacity:1;fill:#0a0b0f;fill-opacity:0.86274511;stroke:none"
       d="m 296.14285,564.64795 11,0 0,-6 -11,0 z"
       id="path4722" />
  </g>
  <g
     id="sunken-right"
     transform="matrix(0,1,-1,0,550.64795,-287.14285)">
    <path
       style="opacity:1;fill:#ffffff;fill-opacity:0.33333334;stroke:none"
       d="m 296.14285,557.64795 11,0 0,1 -11,0 z"
       id="path4726"
       inkscape:connector-curvature="0" />
    <path
       id="path4728"
       d="m 296.14285,564.64795 11,0 0,-6 -11,0 z"
       style="opacity:1;fill:#0a0b0f;fill-opacity:0.86274511;stroke:none"
       inkscape:connector-curvature="0"
       sodipodi:nodetypes="ccccc" />
  </g>
  <path
     style="opacity:1;fill:#0a0b0f;fill-opacity:0.86274511;stroke:none"
     d="m -25,9 11,0 0,11 -11,0 z"
     id="sunken-center"
     inkscape:connector-curvature="0" />
  <g
     transform="translate(-321.14285,-499.64795)"
     id="raised-top">
    <path
       inkscape:connector-curvature="0"
       style="opacity:1;fill:#ffffff;fill-opacity:0.33333334;stroke:none"
       d="m 296.14285,557.64795 11,0 0,1 -11,0 z"
       id="path4535" />
    <path
       id="path4537"
       d="m 296.14285,564.64795 11,0 0,-6 -11,0 z"
       style="opacity:1;fill:#ffffff;fill-opacity:0.09803922;stroke:none"
       inkscape:connector-curvature="0"
       sodipodi:nodetypes="ccccc" />
  </g>
  <g
     transform="matrix(1,0,0,-1,-321.14285,640.64795)"
     id="raised-bottom">
    <path
       inkscape:connector-curvature="0"
       id="path4545"
       d="m 296.14285,557.64795 11,0 0,1 -11,0 z"
       style="opacity:1;fill:#ffffff;fill-opacity:0.33333334;stroke:none" />
    <path
       sodipodi:nodetypes="ccccc"
       inkscape:connector-curvature="0"
       style="opacity:1;fill:#ffffff;fill-opacity:0.09803922;stroke:none"
       d="m 296.14285,564.64795 11,0 0,-6 -11,0 z"
       id="path4547" />
  </g>
  <g
     id="raised-left"
     transform="matrix(0,1,1,0,-589.64795,-231.14285)">
    <path
       style="opacity:1;fill:#ffffff;fill-opacity:0.33333334;stroke:none"
       d="m 296.14285,557.64795 11,0 0,1 -11,0 z"
       id="path4551"
       inkscape:connector-curvature="0" />
    <path
       id="path4553"
       d="m 296.14285,564.64795 11,0 0,-6 -11,0 z"
       style="opacity:1;fill:#ffffff;fill-opacity:0.09803922;stroke:none"
       inkscape:connector-curvature="0"
       sodipodi:nodetypes="ccccc" />
  </g>
  <g
     transform="matrix(0,1,-1,0,550.64795,-231.14285)"
     id="raised-right">
    <path
       inkscape:connector-curvature="0"
       id="path4557"
       d="m 296.14285,557.64795 11,0 0,1 -11,0 z"
       style="opacity:1;fill:#ffffff;fill-opacity:0.33333334;stroke:none" />
    <path
       sodipodi:nodetypes="ccccc"
       inkscape:connector-curvature="0"
       style="opacity:1;fill:#ffffff;fill-opacity:0.09803922;stroke:none"
       d="m 296.14285,564.64795 11,0 0,-6 -11,0 z"
       id="path4559" />
  </g>
  <path
     inkscape:connector-curvature="0"
     id="raised-center"
     d="m -25,65 11,0 0,11 -11,0 z"
     style="opacity:1;fill:#ffffff;fill-opacity:0.09803922;stroke:none" />
  <g
     id="sunken-top"
     transform="translate(-321.14286,-555.64796)">
    <path
       id="rect4698-5"
       d="m 296.14285,557.64795 11,0 0,1 -11,0 z"
       style="opacity:1;fill:#ffffff;fill-opacity:0.33333334;stroke:none"
       inkscape:connector-curvature="0" />
    <path
       sodipodi:nodetypes="ccccc"
       inkscape:connector-curvature="0"
       style="opacity:1;fill:#0a0b0f;fill-opacity:0.86274511;stroke:none"
       d="m 296.14285,564.64795 11,0 0,-6 -11,0 z"
       id="path4701-7" />
  </g>
  <g
     transform="translate(-321.14286,-555.64796)"
     id="sunken-topright">
    <path
       style="fill:#ffffff;fill-opacity:0.33333334;stroke:none;opacity:1"
       d="m 307.14285,557.64795 0,1 4.51562,0 c 0.82235,0 1.48438,0.68991 1.48438,1.54688 l 0,4.45312 1,0 0,-5 c 0,-1.108 -0.892,-2 -2,-2 z"
       id="rect4646"
       inkscape:connector-curvature="0"
       sodipodi:nodetypes="ccssccssc" />
    <path
       sodipodi:nodetypes="cssccc"
       inkscape:connector-curvature="0"
       id="path4657"
       d="m 307.14285,558.64795 4.51562,0 c 0.82235,0 1.48438,0.68991 1.48438,1.54688 l 0,4.45312 -6.00001,10e-6 z"
       style="fill:#0a0b0f;fill-opacity:0.86274511;stroke:none;opacity:1" />
  </g>
  <g
     id="sunken-topleft"
     transform="matrix(-1,0,0,1,282.14284,-555.64796)">
    <path
       sodipodi:nodetypes="ccssccssc"
       inkscape:connector-curvature="0"
       id="path4686"
       d="m 307.14285,557.64795 0,1 4.51562,0 c 0.82235,0 1.48438,0.68991 1.48438,1.54688 l 0,4.45312 1,0 0,-5 c 0,-1.108 -0.892,-2 -2,-2 z"
       style="fill:#ffffff;fill-opacity:0.33333334;stroke:none;opacity:1" />
    <path
       style="fill:#0a0b0f;fill-opacity:0.86274511;stroke:none;opacity:1"
       d="m 307.14285,558.64795 4.51562,0 c 0.82235,0 1.48438,0.68991 1.48438,1.54688 l 0,4.45312 -6.00001,10e-6 z"
       id="path4688"
       inkscape:connector-curvature="0"
       sodipodi:nodetypes="cssccc" />
  </g>
  <g
     id="sunken-bottomright"
     transform="matrix(1,0,0,-1,-321.14286,584.64795)">
    <path
       sodipodi:nodetypes="ccssccssc"
       inkscape:connector-curvature="0"
       id="path4506"
       d="m 307.14285,557.64795 0,1 4.51562,0 c 0.82235,0 1.48438,0.68991 1.48438,1.54688 l 0,4.45312 1,0 0,-5 c 0,-1.108 -0.892,-2 -2,-2 z"
       style="fill:#ffffff;fill-opacity:0.33333334;stroke:none;opacity:1" />
    <path
       style="fill:#0a0b0f;fill-opacity:0.86274511;stroke:none;opacity:1"
       d="m 307.14285,558.64795 4.51562,0 c 0.82235,0 1.48438,0.68991 1.48438,1.54688 l 0,4.45312 -6.00001,10e-6 z"
       id="path4508"
       inkscape:connector-curvature="0"
       sodipodi:nodetypes="cssccc" />
  </g>
  <g
     transform="matrix(-1,0,0,-1,282.14283,584.64795)"
     id="sunken-bottomleft">
    <path
       style="fill:#ffffff;fill-opacity:0.33333334;stroke:none;opacity:1"
       d="m 307.14285,557.64795 0,1 4.51562,0 c 0.82235,0 1.48438,0.68991 1.48438,1.54688 l 0,4.45312 1,0 0,-5 c 0,-1.108 -0.892,-2 -2,-2 z"
       id="path4516"
       inkscape:connector-curvature="0"
       sodipodi:nodetypes="ccssccssc" />
    <path
       sodipodi:nodetypes="cssccc"
       inkscape:connector-curvature="0"
       id="path4518"
       d="m 307.14285,558.64795 4.51562,0 c 0.82235,0 1.48438,0.68991 1.48438,1.54688 l 0,4.45312 -6.00001,10e-6 z"
       style="fill:#0a0b0f;fill-opacity:0.86274511;stroke:none;opacity:1" />
  </g>
  <g
     transform="translate(-321.14286,-499.64796)"
     id="raised-topright">
    <path
       style="fill:#ffffff;fill-opacity:0.33333334;stroke:none;opacity:1"
       d="m 307.14285,557.64795 0,1 4.51562,0 c 0.82235,0 1.48438,0.68991 1.48438,1.54688 l 0,4.45312 1,0 0,-5 c 0,-1.108 -0.892,-2 -2,-2 z"
       id="path4522"
       inkscape:connector-curvature="0"
       sodipodi:nodetypes="ccssccssc" />
    <path
       sodipodi:nodetypes="cssccc"
       inkscape:connector-curvature="0"
       id="path4524"
       d="m 307.14285,558.64795 4.51562,0 c 0.82235,0 1.48438,0.68991 1.48438,1.54688 l 0,4.45312 -6.00001,10e-6 z"
       style="fill:#ffffff;fill-opacity:0.09803922;stroke:none;opacity:1" />
  </g>
  <g
     id="raised-topleft"
     transform="matrix(-1,0,0,1,282.14283,-499.64796)">
    <path
       sodipodi:nodetypes="ccssccssc"
       inkscape:connector-curvature="0"
       id="path4528"
       d="m 307.14285,557.64795 0,1 4.51562,0 c 0.82235,0 1.48438,0.68991 1.48438,1.54688 l 0,4.45312 1,0 0,-5 c 0,-1.108 -0.892,-2 -2,-2 z"
       style="fill:#ffffff;fill-opacity:0.33333334;stroke:none;opacity:1" />
    <path
       style="fill:#ffffff;fill-opacity:0.09803922;stroke:none;opacity:1"
       d="m 307.14285,558.64795 4.51562,0 c 0.82235,0 1.48438,0.68991 1.48438,1.54688 l 0,4.45312 -6.00001,10e-6 z"
       id="path4530"
       inkscape:connector-curvature="0"
       sodipodi:nodetypes="cssccc" />
  </g>
  <g
     transform="matrix(-1,0,0,-1,282.14283,640.64795)"
     id="raised-bottomleft">
    <path
       style="fill:#ffffff;fill-opacity:0.33333334;stroke:none;opacity:1"
       d="m 307.14285,557.64795 0,1 4.51562,0 c 0.82235,0 1.48438,0.68991 1.48438,1.54688 l 0,4.45312 1,0 0,-5 c 0,-1.108 -0.892,-2 -2,-2 z"
       id="path4534"
       inkscape:connector-curvature="0"
       sodipodi:nodetypes="ccssccssc" />
    <path
       sodipodi:nodetypes="cssccc"
       inkscape:connector-curvature="0"
       id="path4536"
       d="m 307.14285,558.64795 4.51562,0 c 0.82235,0 1.48438,0.68991 1.48438,1.54688 l 0,4.45312 -6.00001,10e-6 z"
       style="fill:#ffffff;fill-opacity:0.09803922;stroke:none;opacity:1" />
  </g>
  <g
     id="raised-bottomright"
     transform="matrix(1,0,0,-1,-321.14286,640.64795)">
    <path
       sodipodi:nodetypes="ccssccssc"
       inkscape:connector-curvature="0"
       id="path4540"
       d="m 307.14285,557.64795 0,1 4.51562,0 c 0.82235,0 1.48438,0.68991 1.48438,1.54688 l 0,4.45312 1,0 0,-5 c 0,-1.108 -0.892,-2 -2,-2 z"
       style="fill:#ffffff;fill-opacity:0.33333334;stroke:none;opacity:1" />
    <path
       style="fill:#ffffff;fill-opacity:0.09803922;stroke:none;opacity:1"
       d="m 307.14285,558.64795 4.51562,0 c 0.82235,0 1.48438,0.68991 1.48438,1.54688 l 0,4.45312 -6.00001,10e-6 z"
       id="path4542"
       inkscape:connector-curvature="0"
       sodipodi:nodetypes="cssccc" />
  </g>
  <g
     style="fill:#2f3544;fill-opacity:1;opacity:1"
     id="plain-bottom"
     transform="matrix(1,0,0,-1,-321.14285,612.64795)">
    <path
       style="opacity:1;fill:#ffffff;fill-opacity:0.09803922;stroke:none"
       d="m 296.14285,557.64795 11,0 0,1 -11,0 z"
       id="path4447"
       inkscape:connector-curvature="0" />
    <path
       id="path4449"
       d="m 296.14285,564.64795 11,0 0,-6 -11,0 z"
       style="opacity:1;fill:#0a0b0f;fill-opacity:0.17647059;stroke:none"
       inkscape:connector-curvature="0"
       sodipodi:nodetypes="ccccc" />
  </g>
  <g
     style="fill:#2f3544;fill-opacity:1;opacity:1"
     transform="matrix(0,1,1,0,-589.64795,-259.14285)"
     id="plain-left">
    <path
       inkscape:connector-curvature="0"
       id="path4453"
       d="m 296.14285,557.64795 11,0 0,1 -11,0 z"
       style="opacity:1;fill:#ffffff;fill-opacity:0.09803922;stroke:none" />
    <path
       sodipodi:nodetypes="ccccc"
       inkscape:connector-curvature="0"
       style="opacity:1;fill:#0a0b0f;fill-opacity:0.17647059;stroke:none"
       d="m 296.14285,564.64795 11,0 0,-6 -11,0 z"
       id="path4455" />
  </g>
  <g
     style="fill:#2f3544;fill-opacity:1;opacity:1"
     id="plain-right"
     transform="matrix(0,1,-1,0,550.64795,-259.14285)">
    <path
       style="opacity:1;fill:#ffffff;fill-opacity:0.09803922;stroke:none"
       d="m 296.14285,557.64795 11,0 0,1 -11,0 z"
       id="path4459"
       inkscape:connector-curvature="0" />
    <path
       id="path4461"
       d="m 296.14285,564.64795 11,0 0,-6 -11,0 z"
       style="opacity:1;fill:#0a0b0f;fill-opacity:0.17647059;stroke:none"
       inkscape:connector-curvature="0"
       sodipodi:nodetypes="ccccc" />
  </g>
  <path
     inkscape:connector-curvature="0"
     id="plain-center"
     d="m -25,37 11,0 0,11 -11,0 z"
     style="opacity:1;fill:#0a0b0f;fill-opacity:0.17647059;stroke:none" />
  <g
     style="fill:#2f3544;fill-opacity:1;opacity:1"
     id="plain-top"
     transform="translate(-321.14286,-527.64796)">
    <path
       id="path4467"
       d="m 296.14285,557.64795 11,0 0,1 -11,0 z"
       style="opacity:1;fill:#ffffff;fill-opacity:0.09803922;stroke:none"
       inkscape:connector-curvature="0" />
    <path
       sodipodi:nodetypes="ccccc"
       inkscape:connector-curvature="0"
       style="opacity:1;fill:#0a0b0f;fill-opacity:0.17647059;stroke:none"
       d="m 296.14285,564.64795 11,0 0,-6 -11,0 z"
       id="path4469" />
  </g>
  <g
     style="fill:#2f3544;fill-opacity:1;opacity:1"
     transform="translate(-321.14286,-527.64796)"
     id="plain-topright">
    <path
       sodipodi:nodetypes="ccssccssc"
       inkscape:connector-curvature="0"
       id="path4475"
       d="m 307.14285,557.64795 0,1 4.51562,0 c 0.82235,0 1.48438,0.68991 1.48438,1.54688 l 0,4.45312 1,0 0,-5 c 0,-1.108 -0.892,-2 -2,-2 z"
       style="fill:#ffffff;fill-opacity:0.09803922;stroke:none;opacity:1" />
    <path
       style="fill:#0a0b0f;fill-opacity:0.17647059;stroke:none;opacity:1"
       d="m 307.14285,558.64795 4.51562,0 c 0.82235,0 1.48438,0.68991 1.48438,1.54688 l 0,4.45312 -6.00001,10e-6 z"
       id="path4477"
       inkscape:connector-curvature="0"
       sodipodi:nodetypes="cssccc" />
  </g>
  <g
     style="fill:#2f3544;fill-opacity:1;opacity:1"
     id="plain-topleft"
     transform="matrix(-1,0,0,1,282.14284,-527.64796)">
    <path
       style="fill:#ffffff;fill-opacity:0.09803922;stroke:none;opacity:1"
       d="m 307.14285,557.64795 0,1 4.51562,0 c 0.82235,0 1.48438,0.68991 1.48438,1.54688 l 0,4.45312 1,0 0,-5 c 0,-1.108 -0.892,-2 -2,-2 z"
       id="path4483"
       inkscape:connector-curvature="0"
       sodipodi:nodetypes="ccssccssc" />
    <path
       sodipodi:nodetypes="cssccc"
       inkscape:connector-curvature="0"
       id="path4485"
       d="m 307.14285,558.64795 4.51562,0 c 0.82235,0 1.48438,0.68991 1.48438,1.54688 l 0,4.45312 -6.00001,10e-6 z"
       style="fill:#0a0b0f;fill-opacity:0.17647059;stroke:none;opacity:1" />
  </g>
  <g
     style="fill:#2f3544;fill-opacity:1;opacity:1"
     id="plain-bottomright"
     transform="matrix(1,0,0,-1,-321.14286,612.64795)">
    <path
       style="fill:#ffffff;fill-opacity:0.09803922;stroke:none;opacity:1"
       d="m 307.14285,557.64795 0,1 4.51562,0 c 0.82235,0 1.48438,0.68991 1.48438,1.54688 l 0,4.45312 1,0 0,-5 c 0,-1.108 -0.892,-2 -2,-2 z"
       id="path4491"
       inkscape:connector-curvature="0"
       sodipodi:nodetypes="ccssccssc" />
    <path
       sodipodi:nodetypes="cssccc"
       inkscape:connector-curvature="0"
       id="path4493"
       d="m 307.14285,558.64795 4.51562,0 c 0.82235,0 1.48438,0.68991 1.48438,1.54688 l 0,4.45312 -6.00001,10e-6 z"
       style="fill:#0a0b0f;fill-opacity:0.17647059;stroke:none;opacity:1" />
  </g>
  <g
     style="fill:#2f3544;fill-opacity:1;opacity:1"
     transform="matrix(-1,0,0,-1,282.14283,612.64795)"
     id="plain-bottomleft">
    <path
       sodipodi:nodetypes="ccssccssc"
       inkscape:connector-curvature="0"
       id="path4497"
       d="m 307.14285,557.64795 0,1 4.51562,0 c 0.82235,0 1.48438,0.68991 1.48438,1.54688 l 0,4.45312 1,0 0,-5 c 0,-1.108 -0.892,-2 -2,-2 z"
       style="fill:#ffffff;fill-opacity:0.09803922;stroke:none;opacity:1" />
    <path
       style="fill:#0a0b0f;fill-opacity:0.17647059;stroke:none;opacity:1"
       d="m 307.14285,558.64795 4.51562,0 c 0.82235,0 1.48438,0.68991 1.48438,1.54688 l 0,4.45312 -6.00001,10e-6 z"
       id="path4499"
       inkscape:connector-curvature="0"
       sodipodi:nodetypes="cssccc" />
  </g>
</svg>
