<?xml version="1.0" encoding="UTF-8" standalone="no"?>
<!-- Created with Inkscape (http://www.inkscape.org/) -->

<svg
   xmlns:dc="http://purl.org/dc/elements/1.1/"
   xmlns:cc="http://creativecommons.org/ns#"
   xmlns:rdf="http://www.w3.org/1999/02/22-rdf-syntax-ns#"
   xmlns:svg="http://www.w3.org/2000/svg"
   xmlns="http://www.w3.org/2000/svg"
   xmlns:sodipodi="http://sodipodi.sourceforge.net/DTD/sodipodi-0.dtd"
   xmlns:inkscape="http://www.inkscape.org/namespaces/inkscape"
   width="48"
   height="98"
   id="svg3642"
   sodipodi:version="0.32"
   inkscape:version="0.92.4 5da689c313, 2019-01-14"
   sodipodi:docname="scrollbar.svg"
   inkscape:output_extension="org.inkscape.output.svgz.inkscape"
   version="1.0">
  <sodipodi:namedview
     id="base"
     pagecolor="#eff0f1"
     bordercolor="#666666"
     borderopacity="1.0"
     inkscape:pageopacity="1"
     inkscape:pageshadow="2"
     inkscape:zoom="15.46356"
     inkscape:cx="26.210264"
     inkscape:cy="52.202323"
     inkscape:current-layer="layer1"
     showgrid="true"
     inkscape:grid-bbox="true"
     inkscape:document-units="px"
     inkscape:window-width="1920"
     inkscape:window-height="1019"
     inkscape:window-x="0"
     inkscape:window-y="0"
     width="48px"
     height="48px"
     showguides="true"
     inkscape:guide-bbox="true"
     objecttolerance="9"
     gridtolerance="13"
     inkscape:window-maximized="1">
    <inkscape:grid
       visible="true"
       enabled="true"
       id="grid2555"
       type="xygrid"
       empspacing="5"
       snapvisiblegridlinesonly="true"
       color="#0000ff"
       opacity="0.01960784"
       empcolor="#0000ff"
       empopacity="0.03921569" />
  </sodipodi:namedview>
  <defs
     id="defs3644">
    <style
       id="current-color-scheme"
       type="text/css">
      .ColorScheme-Text {
        color:#31363b;
        stop-color:#31363b;
      }
      .ColorScheme-Background {
        color:#eff0f1;
        stop-color:#eff0f1;
      }
      .ColorScheme-Highlight {
        color:#3daee9;
        stop-color:#3daee9;
      }
      .ColorScheme-ViewText {
        color:#31363b;
        stop-color:#31363b;
      }
      .ColorScheme-ViewBackground {
        color:#fcfcfc;
        stop-color:#fcfcfc;
      }
      .ColorScheme-ViewHover {
        color:#93cee9;
        stop-color:#93cee9;
      }
      .ColorScheme-ViewFocus{
        color:#3daee9;
        stop-color:#3daee9;
      }
      .ColorScheme-ButtonText {
        color:#31363b;
        stop-color:#31363b;
      }
      .ColorScheme-ButtonBackground {
        color:#eff0f1;
        stop-color:#eff0f1;
      }
      .ColorScheme-ButtonHover {
        color:#93cee9;
        stop-color:#93cee9;
      }
      .ColorScheme-ButtonFocus{
        color:#3daee9;
        stop-color:#3daee9;
      }
      </style>
  </defs>
  <metadata
     id="metadata3647">
    <rdf:RDF>
      <cc:Work
         rdf:about="">
        <dc:format>image/svg+xml</dc:format>
        <dc:type
           rdf:resource="http://purl.org/dc/dcmitype/StillImage" />
        <dc:title></dc:title>
      </cc:Work>
      <cc:Work
         rdf:about="">
        <dc:format>image/svg+xml</dc:format>
        <dc:type
           rdf:resource="http://purl.org/dc/dcmitype/StillImage" />
      </cc:Work>
    </rdf:RDF>
  </metadata>
  <g
     inkscape:groupmode="layer"
     inkscape:label="Layer 1"
     id="layer1">
    <rect
       style="fill:#7c818d;fill-opacity:1;fill-rule:evenodd;stroke:none;opacity:1"
       id="slider-center"
       width="1"
       height="10"
       x="24"
       y="20"
       class="ColorScheme-Text" />
    <g
       id="slider-right"
       transform="matrix(0.75,0,0,1,19.25,13)">
      <path
         id="rect3838"
         d="M 9,7 9,17 13,17 13,7 9,7 z"
         style="fill:#7c818d;fill-opacity:1;fill-rule:evenodd;stroke:none;opacity:1"
         inkscape:connector-curvature="0"
         class="ColorScheme-Text" />
    </g>
    <g
       id="slider-topright"
       transform="matrix(0.75,0,0,0.75,19.25,13.75)">
      <path
         id="rect3840"
         d="m 9,3 0,4 4,0 C 13,4.784 11.216,3 9,3 z"
         style="fill:#7c818d;fill-opacity:1;fill-rule:evenodd;stroke:none;opacity:1"
         inkscape:connector-curvature="0"
         class="ColorScheme-Text" />
    </g>
    <g
       id="slider-bottomright"
       transform="matrix(0.75,0,0,0.75,19.25,18.25)">
      <path
         inkscape:connector-curvature="0"
         style="opacity:1;fill:#7c818d;fill-opacity:1;fill-rule:evenodd;stroke:none"
         d="m 9,21 0,-4 4,0 c 0,2.216 -1.784,4 -4,4 z"
         id="path3871"
         class="ColorScheme-Text" />
    </g>
    <g
       id="slider-left"
       transform="matrix(-0.75,0,0,1,29.75,13)">
      <path
         style="fill:#7c818d;fill-opacity:1;fill-rule:evenodd;stroke:none;opacity:1"
         d="M 9,7 9,17 13,17 13,7 9,7 z"
         id="path3891"
         inkscape:connector-curvature="0"
         class="ColorScheme-Text" />
    </g>
    <g
       id="slider-topleft"
       transform="matrix(-0.75,0,0,0.75,29.75,13.75)">
      <path
         style="fill:#7c818d;fill-opacity:1;fill-rule:evenodd;stroke:none;opacity:1"
         d="m 9,3 0,4 4,0 C 13,4.784 11.216,3 9,3 z"
         id="path3895"
         inkscape:connector-curvature="0"
         class="ColorScheme-Text" />
    </g>
    <g
       id="slider-bottomleft"
       transform="matrix(-0.75,0,0,0.75,29.75,18.25)">
      <path
         id="path3901"
         d="m 9,21 0,-4 4,0 c 0,2.216 -1.784,4 -4,4 z"
         style="fill:#7c818d;fill-opacity:1;fill-rule:evenodd;stroke:none;opacity:1"
         inkscape:connector-curvature="0"
         class="ColorScheme-Text" />
    </g>
    <g
       transform="matrix(0,-0.75,-0.1,0,25.7,25.75)"
       id="slider-top">
      <path
         inkscape:connector-curvature="0"
         id="path3909"
         d="M 9,7 9,17 13,17 13,7 9,7 z"
         style="fill:#7c818d;fill-opacity:1;fill-rule:evenodd;stroke:none;opacity:1"
         class="ColorScheme-Text" />
    </g>
    <g
       id="slider-bottom"
       transform="matrix(0,0.75,-0.1,0,25.7,24.25)">
      <path
         style="fill:#7c818d;fill-opacity:1;fill-rule:evenodd;stroke:none;opacity:1"
         d="M 9,7 9,17 13,17 13,7 9,7 z"
         id="path3915"
         inkscape:connector-curvature="0"
         class="ColorScheme-Text" />
    </g>
    <rect
       ry="8"
       rx="0"
       y="25"
       x="4"
       height="8"
       width="8"
       id="hint-scrollbar-size"
       style="fill:#4e9a06;fill-opacity:1;fill-rule:nonzero;stroke:none" />
    <rect
       style="fill:#4e9a06;fill-opacity:1;fill-rule:nonzero;stroke:none"
       id="hint-tile-center"
       width="2.0329318"
       height="2.077126"
       x="7.2599602"
       y="11.659418"
       rx="0"
       ry="2.077126" />
    <g
       id="background-vertical-right"
       transform="matrix(0.75,0,0,1,33.25,13)"
       inkscape:label="#slider-right-1">
      <rect
         style="opacity:0.01000001;fill:#e4e6e8;fill-opacity:1;stroke:none"
         id="rect3872"
         width="1"
         height="10"
         x="43"
         y="20"
         transform="matrix(1.3333333,0,0,1,-44.333333,-13)" />
    </g>
    <g
       id="background-vertical-topright"
       transform="matrix(0.75,0,0,0.75,33.25,13.75)"
       inkscape:label="#slider-topright-5">
      <rect
         style="opacity:0.01000001;fill:#e4e6e8;fill-opacity:1;stroke:none"
         id="rect3868"
         width="4"
         height="4"
         x="40"
         y="15"
         transform="matrix(1.3333333,0,0,1.3333333,-44.333333,-18.333333)" />
    </g>
    <g
       id="background-vertical-bottomright"
       transform="matrix(0.75,0,0,0.75,33.25,18.25)"
       inkscape:label="#slider-bottomright-2">
      <rect
         style="opacity:0.01000001;fill:#e4e6e8;fill-opacity:1;stroke:none"
         id="rect3878"
         width="4"
         height="4"
         x="40"
         y="31"
         transform="matrix(1.3333333,0,0,1.3333333,-44.333333,-24.333333)" />
    </g>
    <g
       id="background-vertical-left"
       transform="matrix(-0.75,0,0,1,43.75,13)"
       inkscape:label="#slider-left-4">
      <rect
         style="opacity:0.01000001;fill:#e4e6e8;fill-opacity:1;stroke:none"
         id="rect3870"
         width="1"
         height="10"
         x="33"
         y="20"
         transform="matrix(-1.3333333,0,0,1,58.333333,-13)" />
    </g>
    <g
       id="background-vertical-topleft"
       transform="matrix(-0.75,0,0,0.75,43.75,13.75)"
       inkscape:label="#slider-topleft-8">
      <rect
         style="opacity:0.01000001;fill:#e4e6e8;fill-opacity:1;stroke:none"
         id="rect3864"
         width="4"
         height="4"
         x="33"
         y="15"
         transform="matrix(-1.3333333,0,0,1.3333333,58.333333,-18.333333)" />
    </g>
    <g
       id="background-vertical-bottomleft"
       transform="matrix(-0.75,0,0,0.75,43.75,18.25)"
       inkscape:label="#slider-bottomleft-2">
      <rect
         style="opacity:0.01000001;fill:#e4e6e8;fill-opacity:1;stroke:none"
         id="rect3874"
         width="4"
         height="4"
         x="33"
         y="31"
         transform="matrix(-1.3333333,0,0,1.3333333,58.333333,-24.333333)" />
    </g>
    <g
       transform="matrix(0,-0.75,-0.1,0,39.7,25.75)"
       id="background-vertical-top"
       inkscape:label="#slider-top-0">
      <rect
         style="opacity:0.01000001;fill:#e4e6e8;fill-opacity:1;stroke:none"
         id="rect3866"
         width="1"
         height="4"
         x="38"
         y="15"
         transform="matrix(0,-10,-1.3333333,0,34.333333,397)" />
    </g>
    <g
       id="background-vertical-bottom"
       transform="matrix(0,0.75,-0.1,0,39.7,24.25)"
       inkscape:label="#slider-bottom-2">
      <rect
         style="opacity:0.01000001;fill:#e4e6e8;fill-opacity:1;stroke:none"
         id="rect3876"
         width="1"
         height="4"
         x="38"
         y="31"
         transform="matrix(0,-10,1.3333333,0,-32.333333,397)" />
    </g>
    <rect
       style="fill:#ab4dff;fill-rule:evenodd;stroke:none;fill-opacity:1"
       id="sunken-slider-center"
       width="1"
       height="10"
       x="24"
       y="64"
       class="ColorScheme-ButtonHover"
       inkscape:label="#slider-center-6" />
    <g
       id="sunken-slider-right"
       transform="matrix(0.75,0,0,1,19.25,57)"
       inkscape:label="#slider-right-9">
      <path
         id="rect3838-4-8"
         d="M 9,7 9,17 13,17 13,7 9,7 z"
         style="fill:#ab4dff;fill-rule:evenodd;stroke:none;fill-opacity:1"
         inkscape:connector-curvature="0"
         class="ColorScheme-ButtonHover" />
    </g>
    <g
       id="sunken-slider-topright"
       transform="matrix(0.75,0,0,0.75,19.25,57.75)"
       inkscape:label="#slider-topright-4">
      <path
         id="rect3840-2-9"
         d="m 9,3 0,4 4,0 C 13,4.784 11.216,3 9,3 z"
         style="fill:#ab4dff;fill-rule:evenodd;stroke:none;fill-opacity:1"
         inkscape:connector-curvature="0"
         class="ColorScheme-ButtonHover" />
    </g>
    <g
       id="sunken-slider-bottomright"
       transform="matrix(0.75,0,0,0.75,19.25,62.25)"
       inkscape:label="#slider-bottomright-7">
      <path
         inkscape:connector-curvature="0"
         style="fill:#ab4dff;fill-rule:evenodd;stroke:none;fill-opacity:1"
         d="m 9,21 0,-4 4,0 c 0,2.216 -1.784,4 -4,4 z"
         id="path3871-1-7"
         class="ColorScheme-ButtonHover" />
    </g>
    <g
       id="sunken-slider-left"
       transform="matrix(-0.75,0,0,1,29.75,57)"
       inkscape:label="#slider-left-5">
      <path
         style="fill:#ab4dff;fill-rule:evenodd;stroke:none;fill-opacity:1"
         d="M 9,7 9,17 13,17 13,7 9,7 z"
         id="path3891-9-4"
         inkscape:connector-curvature="0"
         class="ColorScheme-ButtonHover" />
    </g>
    <g
       id="sunken-slider-topleft"
       transform="matrix(-0.75,0,0,0.75,29.75,57.75)"
       inkscape:label="#slider-topleft-2">
      <path
         style="fill:#ab4dff;fill-rule:evenodd;stroke:none;fill-opacity:1"
         d="m 9,3 0,4 4,0 C 13,4.784 11.216,3 9,3 z"
         id="path3895-2-1"
         inkscape:connector-curvature="0"
         class="ColorScheme-ButtonHover" />
    </g>
    <g
       id="sunken-slider-bottomleft"
       transform="matrix(-0.75,0,0,0.75,29.75,62.25)"
       inkscape:label="#slider-bottomleft-5">
      <path
         id="path3901-9-9"
         d="m 9,21 0,-4 4,0 c 0,2.216 -1.784,4 -4,4 z"
         style="fill:#ab4dff;fill-rule:evenodd;stroke:none;fill-opacity:1"
         inkscape:connector-curvature="0"
         class="ColorScheme-ButtonHover" />
    </g>
    <g
       transform="matrix(0,-0.75,-0.1,0,25.7,69.75)"
       id="sunken-slider-top"
       inkscape:label="#slider-top-5">
      <path
         inkscape:connector-curvature="0"
         id="path3909-6-1"
         d="M 9,7 9,17 13,17 13,7 9,7 z"
         style="fill:#ab4dff;fill-rule:evenodd;stroke:none;fill-opacity:1"
         class="ColorScheme-ButtonHover" />
    </g>
    <g
       id="sunken-slider-bottom"
       transform="matrix(0,0.75,-0.1,0,25.7,68.25)"
       inkscape:label="#slider-bottom-0">
      <path
         style="fill:#ab4dff;fill-rule:evenodd;stroke:none;fill-opacity:1"
         d="M 9,7 9,17 13,17 13,7 9,7 z"
         id="path3915-6-3"
         inkscape:connector-curvature="0"
         class="ColorScheme-ButtonHover" />
    </g>
    <rect
       inkscape:label="#slider-center-6"
       class="ColorScheme-ButtonHover"
       y="42"
       x="24"
       height="10"
       width="1"
       id="mouseover-slider-center"
       style="fill:#7c818d;fill-opacity:1;fill-rule:evenodd;stroke:none;opacity:1" />
    <g
       inkscape:label="#slider-right-9"
       transform="matrix(0.75,0,0,1,19.250001,35)"
       id="mouseover-slider-right">
      <path
         class="ColorScheme-ButtonHover"
         inkscape:connector-curvature="0"
         style="fill:#7c818d;fill-opacity:1;fill-rule:evenodd;stroke:none;opacity:1"
         d="M 9,7 9,17 13,17 13,7 9,7 z"
         id="path3963" />
    </g>
    <g
       inkscape:label="#slider-topright-4"
       transform="matrix(0.75,0,0,0.75,19.250001,35.75)"
       id="mouseover-slider-topright">
      <path
         class="ColorScheme-ButtonHover"
         inkscape:connector-curvature="0"
         style="fill:#7c818d;fill-opacity:1;fill-rule:evenodd;stroke:none;opacity:1"
         d="m 9,3 0,4 4,0 C 13,4.784 11.216,3 9,3 z"
         id="path3971" />
    </g>
    <g
       inkscape:label="#slider-bottomright-7"
       transform="matrix(0.75,0,0,0.75,19.250001,40.25)"
       id="mouseover-slider-bottomright">
      <path
         class="ColorScheme-ButtonHover"
         id="path3977"
         d="m 9,21 0,-4 4,0 c 0,2.216 -1.784,4 -4,4 z"
         style="fill:#7c818d;fill-opacity:1;fill-rule:evenodd;stroke:none;opacity:1"
         inkscape:connector-curvature="0" />
    </g>
    <g
       inkscape:label="#slider-left-5"
       transform="matrix(-0.75,0,0,1,29.750001,35)"
       id="mouseover-slider-left">
      <path
         class="ColorScheme-ButtonHover"
         inkscape:connector-curvature="0"
         id="path3981"
         d="M 9,7 9,17 13,17 13,7 9,7 z"
         style="fill:#7c818d;fill-opacity:1;fill-rule:evenodd;stroke:none;opacity:1" />
    </g>
    <g
       inkscape:label="#slider-topleft-2"
       transform="matrix(-0.75,0,0,0.75,29.750001,35.75)"
       id="mouseover-slider-topleft">
      <path
         class="ColorScheme-ButtonHover"
         inkscape:connector-curvature="0"
         id="path3989"
         d="m 9,3 0,4 4,0 C 13,4.784 11.216,3 9,3 z"
         style="fill:#7c818d;fill-opacity:1;fill-rule:evenodd;stroke:none;opacity:1" />
    </g>
    <g
       inkscape:label="#slider-bottomleft-5"
       transform="matrix(-0.75,0,0,0.75,29.750001,40.25)"
       id="mouseover-slider-bottomleft">
      <path
         class="ColorScheme-ButtonHover"
         inkscape:connector-curvature="0"
         style="fill:#7c818d;fill-opacity:1;fill-rule:evenodd;stroke:none;opacity:1"
         d="m 9,21 0,-4 4,0 c 0,2.216 -1.784,4 -4,4 z"
         id="path3995" />
    </g>
    <g
       inkscape:label="#slider-top-5"
       id="mouseover-slider-top"
       transform="matrix(0,-0.75,-0.1,0,25.700001,47.75)">
      <path
         class="ColorScheme-ButtonHover"
         style="fill:#7c818d;fill-opacity:1;fill-rule:evenodd;stroke:none;opacity:1"
         d="M 9,7 9,17 13,17 13,7 9,7 z"
         id="path4001"
         inkscape:connector-curvature="0" />
    </g>
    <g
       inkscape:label="#slider-bottom-0"
       transform="matrix(0,0.75,-0.1,0,25.700001,46.25)"
       id="mouseover-slider-bottom">
      <path
         class="ColorScheme-ButtonHover"
         inkscape:connector-curvature="0"
         id="path4007"
         d="M 9,7 9,17 13,17 13,7 9,7 z"
         style="fill:#7c818d;fill-opacity:1;fill-rule:evenodd;stroke:none;opacity:1" />
    </g>
    <g
       id="background-vertical-center" />
    <g
       inkscape:label="#slider-right-1"
       transform="matrix(0.75,0,0,1,33.250001,35.000001)"
       id="background-horizontal-right">
      <rect
         transform="matrix(1.3333333,0,0,1,-44.333333,-13)"
         y="20"
         x="43"
         height="10"
         width="1"
         id="rect4290"
         style="opacity:0.01000001;fill:#e4e6e8;fill-opacity:1;stroke:none" />
    </g>
    <g
       inkscape:label="#slider-topright-5"
       transform="matrix(0.75,0,0,0.75,33.250001,35.750001)"
       id="background-horizontal-topright">
      <rect
         transform="matrix(1.3333333,0,0,1.3333333,-44.333333,-18.333333)"
         y="15"
         x="40"
         height="4"
         width="4"
         id="rect4296"
         style="opacity:0.01000001;fill:#e4e6e8;fill-opacity:1;stroke:none" />
    </g>
    <g
       inkscape:label="#slider-bottomright-2"
       transform="matrix(0.75,0,0,0.75,33.250001,40.250001)"
       id="background-horizontal-bottomright">
      <rect
         transform="matrix(1.3333333,0,0,1.3333333,-44.333333,-24.333333)"
         y="31"
         x="40"
         height="4"
         width="4"
         id="rect4304"
         style="opacity:0.01000001;fill:#e4e6e8;fill-opacity:1;stroke:none" />
    </g>
    <g
       transform="matrix(-0.75,0,0,1,43.750001,35.000001)"
       id="background-horizontal-left">
      <rect
         transform="matrix(-1.3333333,0,0,1,58.333333,-13)"
         y="20"
         x="33"
         height="10"
         width="1"
         id="rect4314"
         style="opacity:0.01000001;fill:#e4e6e8;fill-opacity:1;stroke:none" />
    </g>
    <g
       inkscape:label="#slider-topleft-8"
       transform="matrix(-0.75,0,0,0.75,43.750001,35.750001)"
       id="background-horizontal-topleft">
      <rect
         transform="matrix(-1.3333333,0,0,1.3333333,58.333333,-18.333333)"
         y="15"
         x="33"
         height="4"
         width="4"
         id="rect4320"
         style="opacity:0.01000001;fill:#e4e6e8;fill-opacity:1;stroke:none" />
    </g>
    <g
       inkscape:label="#slider-bottomleft-2"
       transform="matrix(-0.75,0,0,0.75,43.750001,40.250001)"
       id="background-horizontal-bottomleft">
      <rect
         transform="matrix(-1.3333333,0,0,1.3333333,58.333333,-24.333333)"
         y="31"
         x="33"
         height="4"
         width="4"
         id="rect4328"
         style="opacity:0.01000001;fill:#e4e6e8;fill-opacity:1;stroke:none" />
    </g>
    <g
       inkscape:label="#slider-top-0"
       id="background-horizontal-top"
       transform="matrix(0,-0.75,-0.1,0,39.700001,47.750001)">
      <rect
         transform="matrix(0,-10,-1.3333333,0,34.333333,397)"
         y="15"
         x="38"
         height="4"
         width="1"
         id="rect4336"
         style="opacity:0.01000001;fill:#e4e6e8;fill-opacity:1;stroke:none" />
    </g>
    <g
       inkscape:label="#slider-bottom-2"
       transform="matrix(0,0.75,-0.1,0,39.700001,46.250001)"
       id="background-horizontal-bottom">
      <rect
         transform="matrix(0,-10,1.3333333,0,-32.333333,397)"
         y="31"
         x="38"
         height="4"
         width="1"
         id="rect4344"
         style="opacity:0.01000001;fill:#e4e6e8;fill-opacity:1;stroke:none" />
    </g>
    <g
       id="background-horizontal-center"
       transform="translate(9.35e-7,22.000001)" />
  </g>
</svg>
