<?xml version="1.0" encoding="UTF-8" standalone="no"?>
<!-- Created with Inkscape (http://www.inkscape.org/) -->

<svg
   xmlns:dc="http://purl.org/dc/elements/1.1/"
   xmlns:cc="http://creativecommons.org/ns#"
   xmlns:rdf="http://www.w3.org/1999/02/22-rdf-syntax-ns#"
   xmlns:svg="http://www.w3.org/2000/svg"
   xmlns="http://www.w3.org/2000/svg"
   xmlns:xlink="http://www.w3.org/1999/xlink"
   xmlns:sodipodi="http://sodipodi.sourceforge.net/DTD/sodipodi-0.dtd"
   xmlns:inkscape="http://www.inkscape.org/namespaces/inkscape"
   width="500"
   height="1000"
   id="svg2"
   sodipodi:version="0.32"
   inkscape:version="0.92.3 (2405546, 2018-03-11)"
   sodipodi:docname="timer.svgz"
   inkscape:output_extension="org.inkscape.output.svgz.inkscape"
   version="1.1">
  <defs
     id="defs4">
    <inkscape:perspective
       sodipodi:type="inkscape:persp3d"
       inkscape:vp_x="0 : 526.18109 : 1"
       inkscape:vp_y="0 : 1000 : 0"
       inkscape:vp_z="744.09448 : 526.18109 : 1"
       inkscape:persp3d-origin="372.04724 : 350.78739 : 1"
       id="perspective2544" />
    <linearGradient
       id="linearGradient3493">
      <stop
         id="stop3495"
         offset="0"
         style="stop-color:#b40000;stop-opacity:1;" />
      <stop
         style="stop-color:#e10000;stop-opacity:1;"
         offset="0.5"
         id="stop3497" />
      <stop
         id="stop3499"
         offset="1"
         style="stop-color:#b40000;stop-opacity:1;" />
    </linearGradient>
    <linearGradient
       id="linearGradient3178">
      <stop
         style="stop-color:#000000;stop-opacity:1;"
         offset="0"
         id="stop3180" />
      <stop
         id="stop3186"
         offset="0.5"
         style="stop-color:#202020;stop-opacity:1;" />
      <stop
         style="stop-color:#000000;stop-opacity:1;"
         offset="1"
         id="stop3182" />
    </linearGradient>
    <linearGradient
       id="linearGradient3152">
      <stop
         style="stop-color:#dcdcdc;stop-opacity:0.0627451;"
         offset="0"
         id="stop3154" />
      <stop
         id="stop3176"
         offset="0.5"
         style="stop-color:#ffffff;stop-opacity:0.0627451;" />
      <stop
         style="stop-color:#dcdcdc;stop-opacity:0.0627451;"
         offset="1"
         id="stop3156" />
    </linearGradient>
    <linearGradient
       inkscape:collect="always"
       xlink:href="#linearGradient3178"
       id="linearGradient3521"
       x1="-281.2037"
       y1="495.36252"
       x2="-154.66203"
       y2="495.36252"
       gradientUnits="userSpaceOnUse" />
    <linearGradient
       inkscape:collect="always"
       xlink:href="#linearGradient3152"
       id="linearGradient3531"
       x1="-182.78241"
       y1="663.54395"
       x2="-101.66595"
       y2="663.54395"
       gradientUnits="userSpaceOnUse" />
    <linearGradient
       inkscape:collect="always"
       xlink:href="#linearGradient3152"
       id="linearGradient3553"
       x1="-199.00571"
       y1="814.96136"
       x2="-52.996094"
       y2="814.96136"
       gradientUnits="userSpaceOnUse" />
  </defs>
  <sodipodi:namedview
     id="base"
     pagecolor="#9f9fa5"
     bordercolor="#666666"
     borderopacity="1.0"
     inkscape:pageopacity="1"
     inkscape:pageshadow="2"
     inkscape:zoom="0.35434827"
     inkscape:cx="-44.161534"
     inkscape:cy="454.82535"
     inkscape:document-units="px"
     inkscape:current-layer="separatorB"
     showgrid="true"
     showguides="true"
     inkscape:guide-bbox="true"
     inkscape:window-width="1366"
     inkscape:window-height="717"
     inkscape:window-x="0"
     inkscape:window-y="22"
     inkscape:window-maximized="0">
    <inkscape:grid
       type="xygrid"
       id="grid4728" />
  </sodipodi:namedview>
  <metadata
     id="metadata7">
    <rdf:RDF>
      <cc:Work
         rdf:about="">
        <dc:format>image/svg+xml</dc:format>
        <dc:type
           rdf:resource="http://purl.org/dc/dcmitype/StillImage" />
        <dc:title />
      </cc:Work>
    </rdf:RDF>
  </metadata>
  <g
     inkscape:label="Livello 1"
     inkscape:groupmode="layer"
     id="layer1"
     transform="translate(0,-52.36218)">
    <rect
       style="opacity:1;fill:#00ffff;fill-opacity:0;stroke:none;stroke-width:4.41843843;stroke-opacity:1"
       id="separatorC_1"
       width="45"
       height="164"
       x="75"
       y="1168.3622" />
    <g
       id="1"
       transform="translate(410,-280)">
      <path
         d="m 52.26888,1022.0321 v -89.01693 h -1.14583 l -26.28255,19.0495 v -13.6068 l 27.49999,-19.7656 H 65.1595 v 103.33983 z"
         style="font-style:normal;font-variant:normal;font-weight:normal;font-stretch:normal;font-size:146.66665649px;line-height:25px;font-family:'SF UI Text';-inkscape-font-specification:'SF UI Text, Normal';font-variant-ligatures:normal;font-variant-caps:normal;font-variant-numeric:normal;font-feature-settings:normal;text-align:start;letter-spacing:0px;word-spacing:0px;writing-mode:lr-tb;text-anchor:start;fill:#c3c7d1;fill-opacity:1;stroke:none;stroke-width:1"
         id="path4647"
         inkscape:connector-curvature="0" />
      <rect
         style="opacity:1;fill:#0000ff;fill-opacity:0;stroke:none;stroke-width:6.24861574;stroke-opacity:1"
         id="rect4760"
         width="90"
         height="164"
         x="0"
         y="888.36218" />
    </g>
    <g
       id="2"
       transform="translate(205,-280)">
      <path
         d="m 11.233725,948.98524 q 0,-13.75 9.30989,-22.6302 9.38151,-8.8802 23.77604,-8.8802 13.89323,0 23.27474,8.3789 9.45313,8.30731 9.45313,20.625 0,8.0924 -4.58334,15.89841 -4.58333,7.806 -17.25911,21.41279 l -24.85026,26.71216 v 1.1459 h 48.41146 v 11.6015 h -66.88802 v -8.8802 l 35.73567,-39.02985 q 9.95443,-10.8138 13.2487,-16.4714 3.29427,-5.6575 3.29427,-11.888 0,-7.73441 -5.87239,-12.96221 -5.80078,-5.2995 -14.32292,-5.2995 -9.09505,0 -14.68099,5.58591 -5.58593,5.586 -5.58593,14.681 v 0.072 h -12.46094 z"
         style="font-style:normal;font-variant:normal;font-weight:normal;font-stretch:normal;font-size:146.66665649px;line-height:25px;font-family:'SF UI Text';-inkscape-font-specification:'SF UI Text, Normal';font-variant-ligatures:normal;font-variant-caps:normal;font-variant-numeric:normal;font-feature-settings:normal;text-align:start;letter-spacing:0px;word-spacing:0px;writing-mode:lr-tb;text-anchor:start;fill:#c3c7d1;fill-opacity:1;stroke:none;stroke-width:1"
         id="path4649"
         inkscape:connector-curvature="0" />
      <rect
         style="opacity:1;fill:#0000ff;fill-opacity:0;stroke:none;stroke-width:6.24861574;stroke-opacity:1"
         id="rect4766"
         width="90"
         height="164"
         x="0"
         y="888.36218" />
    </g>
    <g
       id="3"
       transform="translate(0,-280)">
      <path
         d="m 31.250005,974.40838 v -11.0286 h 12.53255 q 8.80859,0 14.39453,-5.1563 5.65755,-5.1562 5.65755,-13.177 0,-7.8777 -5.44271,-12.6758 -5.44271,-4.8698 -14.39453,-4.8698 -8.95182,0 -14.46614,4.7265 -5.51432,4.655 -6.30209,12.9623 h -12.53255 q 1.00261,-13.4636 10.02604,-21.1979 9.02344,-7.7344 23.77604,-7.7344 8.88021,0 16.32813,3.6523 7.51953,3.5808 11.8164,9.8112 4.29688,6.2305 4.29688,13.6068 0,9.2383 -4.79818,15.612 -4.79817,6.3737 -13.32031,8.4505 v 1.1458 q 10.52734,1.3607 16.54297,8.2357 6.01562,6.8034 6.01562,17.4024 0,12.74732 -10.52734,21.55592 -10.52734,8.737 -25.85286,8.737 -15.75521,0 -25.70964,-8.0208 -9.95442,-8.0925 -10.67057,-21.34122 h 12.46094 q 0.85937,8.23572 7.30468,13.17712 6.44532,4.9414 16.47136,4.9414 10.16927,0 16.68619,-5.4427 6.58855,-5.4427 6.58855,-13.96482 0,-8.9518 -6.3737,-14.1797 -6.3737,-5.2279 -17.40234,-5.2279 z"
         style="font-style:normal;font-variant:normal;font-weight:normal;font-stretch:normal;font-size:146.66665649px;line-height:25px;font-family:'SF UI Text';-inkscape-font-specification:'SF UI Text, Normal';font-variant-ligatures:normal;font-variant-caps:normal;font-variant-numeric:normal;font-feature-settings:normal;text-align:start;letter-spacing:0px;word-spacing:0px;writing-mode:lr-tb;text-anchor:start;fill:#c3c7d1;fill-opacity:1;stroke:none;stroke-width:1"
         id="path4651"
         inkscape:connector-curvature="0" />
      <rect
         style="opacity:1;fill:#0000ff;fill-opacity:0;stroke:none;stroke-width:6.24861574;stroke-opacity:1"
         id="rect4772"
         width="90"
         height="164"
         x="0"
         y="888.36218" />
    </g>
    <g
       id="4"
       transform="translate(410,-566)">
      <path
         d="m 56.52995,1022.0321 v -21.4127 H 6.1849 v -11.74482 q 14.17969,-25.2084 44.25781,-70.1823 h 18.6914 v 70.3971 H 83.8151 v 11.53002 H 69.13411 v 21.4127 z M 19.36198,988.30168 v 0.8593 h 37.23958 v -58.5091 h -0.85937 q -16.75781,24.349 -36.38021,57.6498 z"
         style="font-style:normal;font-variant:normal;font-weight:normal;font-stretch:normal;font-size:146.66665649px;line-height:25px;font-family:'SF UI Text';-inkscape-font-specification:'SF UI Text, Normal';font-variant-ligatures:normal;font-variant-caps:normal;font-variant-numeric:normal;font-feature-settings:normal;text-align:start;letter-spacing:0px;word-spacing:0px;writing-mode:lr-tb;text-anchor:start;fill:#c3c7d1;fill-opacity:1;stroke:none;stroke-width:1"
         id="path4653"
         inkscape:connector-curvature="0" />
      <rect
         style="opacity:1;fill:#0000ff;fill-opacity:0;stroke:none;stroke-width:6.24861574;stroke-opacity:1"
         id="rect4778"
         width="90"
         height="164"
         x="0"
         y="888.36218" />
    </g>
    <g
       id="5"
       transform="translate(205,-566)">
      <path
         d="m 44.31966,1023.2495 q -14.68099,0 -24.27734,-8.2357 -9.59635,-8.3072 -10.45573,-21.69917 h 12.67578 q 0.85938,8.37887 6.94661,13.53517 6.15886,5.0846 15.25391,5.0846 10.38411,0 16.6862,-6.5169 6.37369,-6.51687 6.37369,-17.11587 0,-10.599 -6.37369,-17.1875 -6.30209,-6.6601 -16.47136,-6.6601 -7.01823,0 -12.60416,3.0794 -5.58594,3.0078 -8.73698,8.5221 H 11.23373 l 5.65755,-58.5807 h 57.64973 v 11.5299 H 26.98893 l -2.93619,33.1576 h 1.14583 q 7.51953,-8.8086 21.84244,-8.8086 14.75261,0 24.0625,9.668 9.3099,9.6679 9.3099,24.9218 0,15.75517 -10.02604,25.56637 -10.02604,9.7396 -26.06771,9.7396 z"
         style="font-style:normal;font-variant:normal;font-weight:normal;font-stretch:normal;font-size:146.66665649px;line-height:25px;font-family:'SF UI Text';-inkscape-font-specification:'SF UI Text, Normal';font-variant-ligatures:normal;font-variant-caps:normal;font-variant-numeric:normal;font-feature-settings:normal;text-align:start;letter-spacing:0px;word-spacing:0px;writing-mode:lr-tb;text-anchor:start;fill:#c3c7d1;fill-opacity:1;stroke:none;stroke-width:1"
         id="path4655"
         inkscape:connector-curvature="0" />
      <rect
         style="opacity:1;fill:#0000ff;fill-opacity:0;stroke:none;stroke-width:6.24861574;stroke-opacity:1"
         id="rect4784"
         width="90"
         height="164"
         x="0"
         y="888.36218" />
    </g>
    <g
       id="6"
       transform="translate(0,-566)">
      <path
         d="m 46.32487,1024.4312 q -11.67318,0 -20.33854,-6.0156 -8.66537,-6.0873 -13.53516,-17.474 -5.01302,-11.74482 -5.01302,-28.78902 0,-26.6407 10.38412,-41.25 10.38411,-14.6094 29.36197,-14.6094 13.17709,0 22.27214,7.3047 9.16666,7.2331 11.60156,19.694 h -13.2487 q -2.07682,-7.2331 -7.66276,-11.3867 -5.51432,-4.1537 -13.10547,-4.1537 -12.60416,0 -19.62239,10.8854 -6.94661,10.8855 -7.44792,31.5105 h 1.14584 q 3.79557,-7.5196 11.02864,-11.6732 7.23307,-4.2253 16.47135,-4.2253 14.75261,0 24.34896,9.8112 9.59636,9.7396 9.59636,24.7787 0,15.61192 -10.16928,25.63802 -10.16927,9.9544 -26.0677,9.9544 z m -16.82943,-18.2617 q 6.73177,6.9466 16.6862,6.9466 9.95443,0 16.61458,-6.8034 6.73177,-6.87502 6.73177,-17.04432 0,-10.5989 -6.51692,-17.1875 -6.44532,-6.6601 -16.6862,-6.6601 -10.24089,0 -16.90104,6.5885 -6.58854,6.5886 -6.58854,16.8295 0,10.3841 6.66015,17.33072 z"
         style="font-style:normal;font-variant:normal;font-weight:normal;font-stretch:normal;font-size:146.66665649px;line-height:25px;font-family:'SF UI Text';-inkscape-font-specification:'SF UI Text, Normal';font-variant-ligatures:normal;font-variant-caps:normal;font-variant-numeric:normal;font-feature-settings:normal;text-align:start;letter-spacing:0px;word-spacing:0px;writing-mode:lr-tb;text-anchor:start;fill:#c3c7d1;fill-opacity:1;stroke:none;stroke-width:1"
         id="path4657"
         inkscape:connector-curvature="0" />
      <rect
         style="opacity:1;fill:#0000ff;fill-opacity:0;stroke:none;stroke-width:6.24861574;stroke-opacity:1"
         id="rect4790"
         width="90"
         height="164"
         x="0"
         y="888.36218" />
    </g>
    <g
       id="7"
       transform="translate(410,-836)">
      <path
         d="m 18.610035,1022.0321 46.6211,-90.66402 v -1.1459 h -53.35287 v -11.5299 h 66.24347 v 11.9596 l -45.97655,91.38022 z"
         style="font-style:normal;font-variant:normal;font-weight:normal;font-stretch:normal;font-size:146.66665649px;line-height:25px;font-family:'SF UI Text';-inkscape-font-specification:'SF UI Text, Normal';font-variant-ligatures:normal;font-variant-caps:normal;font-variant-numeric:normal;font-feature-settings:normal;text-align:start;letter-spacing:0px;word-spacing:0px;writing-mode:lr-tb;text-anchor:start;fill:#c3c7d1;fill-opacity:1;stroke:none;stroke-width:1"
         id="path4659"
         inkscape:connector-curvature="0" />
      <rect
         style="opacity:1;fill:#0000ff;fill-opacity:0;stroke:none;stroke-width:6.24861574;stroke-opacity:1"
         id="rect4796"
         width="90"
         height="164"
         x="0"
         y="888.36218" />
    </g>
    <g
       id="8"
       transform="translate(205,-836)">
      <path
         d="M 71.7839,1016.0881 Q 61.3998,1024.467 45,1024.467 q -16.3997,0 -26.8554,-8.3789 -10.3842,-8.4505 -10.3842,-21.69922 0,-10.0977 5.8724,-17.3307 5.8724,-7.2331 15.612,-9.0235 v -1.1458 q -7.8776,-2.1484 -12.6042,-8.3789 -4.6549,-6.2305 -4.6549,-14.681 0,-12.1029 9.2383,-19.8372 9.3099,-7.7344 23.776,-7.7344 14.4662,0 23.7044,7.7344 9.3099,7.7343 9.3099,19.8372 0,8.5221 -4.6549,14.681 -4.5833,6.1588 -12.6042,8.3789 v 1.1458 q 9.7396,1.7904 15.612,9.0235 5.8724,7.233 5.8724,17.3307 0,13.24872 -10.4557,21.69922 z m -44.2578,-8.164 q 6.7317,5.5143 17.4739,5.5143 10.7422,0 17.474,-5.5143 6.7317,-5.586 6.7317,-14.46622 0,-8.8802 -6.7317,-14.3945 -6.7318,-5.586 -17.474,-5.586 -10.7422,0 -17.4739,5.586 -6.7318,5.5143 -6.7318,14.3945 0,8.88022 6.7318,14.46622 z m 2.7213,-50.13032 q 5.586,4.7982 14.7526,4.7982 9.1667,0 14.7526,-4.7982 5.586,-4.8697 5.586,-12.7473 0,-8.0209 -5.586,-12.8907 -5.5859,-4.8698 -14.7526,-4.8698 -9.1666,0 -14.7526,4.8698 -5.5859,4.8698 -5.5859,12.8907 0,7.8776 5.5859,12.7473 z"
         style="font-style:normal;font-variant:normal;font-weight:normal;font-stretch:normal;font-size:146.66665649px;line-height:25px;font-family:'SF UI Text';-inkscape-font-specification:'SF UI Text, Normal';font-variant-ligatures:normal;font-variant-caps:normal;font-variant-numeric:normal;font-feature-settings:normal;text-align:start;letter-spacing:0px;word-spacing:0px;writing-mode:lr-tb;text-anchor:start;fill:#c3c7d1;fill-opacity:1;stroke:none;stroke-width:1"
         id="path4661"
         inkscape:connector-curvature="0" />
      <rect
         style="opacity:1;fill:#0000ff;fill-opacity:0;stroke:none;stroke-width:6.24861574;stroke-opacity:1"
         id="rect4802"
         width="90"
         height="164"
         x="0"
         y="888.36218" />
    </g>
    <g
       id="9"
       transform="translate(0,-836)">
      <path
         d="m 42.815765,1024.4312 q -13.1771,0 -22.3437,-7.2331 -9.0951,-7.3047 -11.53,-19.76562 h 13.2487 q 2.0769,7.23312 7.5912,11.38672 5.5859,4.1537 13.1771,4.1537 12.6041,0 19.5507,-10.8854 7.01827,-10.88552 7.51957,-31.51052 h -0.5729 -0.2865 -0.2865 q -3.79547,7.5196 -11.02857,11.7448 -7.2331,4.1537 -16.4714,4.1537 -14.7526,0 -24.3489,-9.7396 -9.5964,-9.8112 -9.5964,-24.8503 0,-15.6119 10.1693,-25.5664 10.1693,-10.026 26.0677,-10.026 11.6016,0 20.3385,6.0156 8.73697,6.0156 13.53517,17.474 5.013,11.7448 5.013,28.789 0,26.6407 -10.3841,41.25002 -10.38407,14.6094 -29.36197,14.6094 z m -15.8984,-55.71612 q 6.5169,6.5885 16.7578,6.5885 10.2409,0 16.8294,-6.5885 6.66017,-6.5886 6.66017,-16.8295 0,-10.3841 -6.73177,-17.3307 -6.6601,-6.9466 -16.6146,-6.9466 -9.9544,0 -16.6862,6.875 -6.6601,6.8034 -6.6601,16.9727 0,10.5989 6.4453,17.2591 z"
         style="font-style:normal;font-variant:normal;font-weight:normal;font-stretch:normal;font-size:146.66665649px;line-height:25px;font-family:'SF UI Text';-inkscape-font-specification:'SF UI Text, Normal';font-variant-ligatures:normal;font-variant-caps:normal;font-variant-numeric:normal;font-feature-settings:normal;text-align:start;letter-spacing:0px;word-spacing:0px;writing-mode:lr-tb;text-anchor:start;fill:#c3c7d1;fill-opacity:1;stroke:none;stroke-width:1"
         id="path4663"
         inkscape:connector-curvature="0" />
      <rect
         style="opacity:1;fill:#0000ff;fill-opacity:0;stroke:none;stroke-width:6.24861574;stroke-opacity:1"
         id="rect4808"
         width="90"
         height="164"
         x="0"
         y="888.36218" />
    </g>
    <g
       id="0"
       transform="translate(0,-2.6171874e-6)">
      <path
         d="m 45.07155,1024.467 q -17.4739,0 -27.0703,-14.1797 -9.5963,-14.17972 -9.5963,-39.96092 0,-25.5664 9.6679,-39.8177 9.668,-14.2513 26.9987,-14.2513 17.2591,0 26.8555,14.3229 9.668,14.3229 9.668,39.9609 0,25.7097 -9.5964,39.81772 -9.5247,14.1081 -26.9271,14.1081 z m -17.6172,-22.3437 q 6.1589,11.1002 17.6172,11.1002 11.4583,0 17.474,-11.0286 6.0872,-11.10032 6.0872,-31.86852 0,-20.5534 -6.1588,-31.6536 -6.0873,-11.1003 -17.4024,-11.1003 -11.3151,0 -17.5456,11.1719 -6.1588,11.1002 -6.1588,31.582 0,20.6966 6.0872,31.79692 z"
         style="font-style:normal;font-variant:normal;font-weight:normal;font-stretch:normal;font-size:146.66665649px;line-height:25px;font-family:'SF UI Text';-inkscape-font-specification:'SF UI Text, Normal';font-variant-ligatures:normal;font-variant-caps:normal;font-variant-numeric:normal;font-feature-settings:normal;text-align:start;letter-spacing:0px;word-spacing:0px;writing-mode:lr-tb;text-anchor:start;fill:#c3c7d1;fill-opacity:1;stroke:none;stroke-width:1"
         id="path4665"
         inkscape:connector-curvature="0" />
      <rect
         style="opacity:1;fill:#0000ff;fill-opacity:0;stroke:none;stroke-width:6.24861574;stroke-opacity:1"
         id="rect4814"
         width="90"
         height="164"
         x="0"
         y="888.36218" />
    </g>
    <g
       id="separator"
       transform="translate(205,-2.6171874e-6)">
      <path
         d="m 45,1007.2079 q -3.795573,0 -6.588541,-2.7214 -2.721356,-2.793 -2.721356,-6.58853 0,-3.86719 2.721356,-6.58854 2.792968,-2.72136 6.588541,-2.72136 3.867187,0 6.588541,2.72136 2.721355,2.72135 2.721355,6.58854 0,3.79553 -2.721355,6.58853 -2.721354,2.7214 -6.588541,2.7214 z m 0,-55.07165 q -3.795573,0 -6.588541,-2.72135 -2.721356,-2.79297 -2.721356,-6.58855 0,-3.86718 2.721356,-6.58854 2.792968,-2.72135 6.588541,-2.72135 3.867187,0 6.588541,2.72135 2.721355,2.72136 2.721355,6.58854 0,3.79558 -2.721355,6.58855 Q 48.867187,952.13625 45,952.13625 Z"
         style="font-style:normal;font-variant:normal;font-weight:normal;font-stretch:normal;font-size:medium;line-height:25px;font-family:'SF UI Text';-inkscape-font-specification:'SF UI Text';font-variant-ligatures:normal;font-variant-caps:normal;font-variant-numeric:normal;font-feature-settings:normal;text-align:start;letter-spacing:0px;word-spacing:0px;writing-mode:lr-tb;text-anchor:start;fill:#c3c7d1;fill-opacity:1;stroke:none"
         id="path4820"
         inkscape:connector-curvature="0" />
      <rect
         style="opacity:1;fill:#0000ff;fill-opacity:0;stroke:none;stroke-width:4.41843843;stroke-opacity:1"
         id="rect4827"
         width="45"
         height="164"
         x="22.5"
         y="888.36218" />
    </g>
    <g
       id="separatorB"
       transform="translate(432.5,-2.6171874e-6)">
      <path
         d="m 45.000005,1007.208 q -3.79558,0 -6.58854,-2.7214 -2.72136,-2.793 -2.72136,-6.58853 0,-3.86719 2.72136,-6.58854 2.79296,-2.72136 6.58854,-2.72136 3.86719,0 6.58854,2.72136 2.72135,2.72135 2.72135,6.58854 0,3.79553 -2.72135,6.58853 -2.72135,2.7214 -6.58854,2.7214 z"
         style="font-style:normal;font-variant:normal;font-weight:normal;font-stretch:normal;font-size:medium;line-height:25px;font-family:'SF UI Text';-inkscape-font-specification:'SF UI Text';font-variant-ligatures:normal;font-variant-caps:normal;font-variant-numeric:normal;font-feature-settings:normal;text-align:start;letter-spacing:0px;word-spacing:0px;writing-mode:lr-tb;text-anchor:start;fill:#c3c7d1;fill-opacity:1;stroke:none"
         id="path4822"
         inkscape:connector-curvature="0" />
      <rect
         style="opacity:1;fill:#0000ff;fill-opacity:0;stroke:none;stroke-width:4.41843843;stroke-opacity:1"
         id="rect4833"
         width="45"
         height="164"
         x="22.5"
         y="888.36218" />
    </g>
    <g
       transform="translate(-570.55018,-418)"
       id="1_1">
      <path
         inkscape:connector-curvature="0"
         id="path4839"
         style="font-style:normal;font-variant:normal;font-weight:normal;font-stretch:normal;font-size:146.66665649px;line-height:25px;font-family:'SF UI Text';-inkscape-font-specification:'SF UI Text, Normal';font-variant-ligatures:normal;font-variant-caps:normal;font-variant-numeric:normal;font-feature-settings:normal;text-align:start;letter-spacing:0px;word-spacing:0px;writing-mode:lr-tb;text-anchor:start;fill:#ff485f;fill-opacity:1;stroke:none;stroke-width:1"
         d="m 52.26888,1022.0321 v -89.01693 h -1.14583 l -26.28255,19.0495 v -13.6068 l 27.49999,-19.7656 H 65.1595 v 103.33983 z" />
      <rect
         y="888.36218"
         x="0"
         height="164"
         width="90"
         id="rect4841"
         style="opacity:1;fill:#0000ff;fill-opacity:0;stroke:none;stroke-width:6.24861574;stroke-opacity:1" />
    </g>
    <g
       transform="translate(-701.97596,-418)"
       id="2_1">
      <path
         inkscape:connector-curvature="0"
         id="path4845"
         style="font-style:normal;font-variant:normal;font-weight:normal;font-stretch:normal;font-size:146.66665649px;line-height:25px;font-family:'SF UI Text';-inkscape-font-specification:'SF UI Text, Normal';font-variant-ligatures:normal;font-variant-caps:normal;font-variant-numeric:normal;font-feature-settings:normal;text-align:start;letter-spacing:0px;word-spacing:0px;writing-mode:lr-tb;text-anchor:start;fill:#ff485f;fill-opacity:1;stroke:none;stroke-width:1"
         d="m 11.233725,948.98524 q 0,-13.75 9.30989,-22.6302 9.38151,-8.8802 23.77604,-8.8802 13.89323,0 23.27474,8.3789 9.45313,8.30731 9.45313,20.625 0,8.0924 -4.58334,15.89841 -4.58333,7.806 -17.25911,21.41279 l -24.85026,26.71216 v 1.1459 h 48.41146 v 11.6015 h -66.88802 v -8.8802 l 35.73567,-39.02985 q 9.95443,-10.8138 13.2487,-16.4714 3.29427,-5.6575 3.29427,-11.888 0,-7.73441 -5.87239,-12.96221 -5.80078,-5.2995 -14.32292,-5.2995 -9.09505,0 -14.68099,5.58591 -5.58593,5.586 -5.58593,14.681 v 0.072 h -12.46094 z" />
      <rect
         y="888.36218"
         x="0"
         height="164"
         width="90"
         id="rect4847"
         style="opacity:1;fill:#0000ff;fill-opacity:0;stroke:none;stroke-width:6.24861574;stroke-opacity:1" />
    </g>
    <g
       transform="translate(-857.10292,-418)"
       id="3_1">
      <path
         inkscape:connector-curvature="0"
         id="path4851"
         style="font-style:normal;font-variant:normal;font-weight:normal;font-stretch:normal;font-size:146.66665649px;line-height:25px;font-family:'SF UI Text';-inkscape-font-specification:'SF UI Text, Normal';font-variant-ligatures:normal;font-variant-caps:normal;font-variant-numeric:normal;font-feature-settings:normal;text-align:start;letter-spacing:0px;word-spacing:0px;writing-mode:lr-tb;text-anchor:start;fill:#ff485f;fill-opacity:1;stroke:none;stroke-width:1"
         d="m 31.250005,974.40838 v -11.0286 h 12.53255 q 8.80859,0 14.39453,-5.1563 5.65755,-5.1562 5.65755,-13.177 0,-7.8777 -5.44271,-12.6758 -5.44271,-4.8698 -14.39453,-4.8698 -8.95182,0 -14.46614,4.7265 -5.51432,4.655 -6.30209,12.9623 h -12.53255 q 1.00261,-13.4636 10.02604,-21.1979 9.02344,-7.7344 23.77604,-7.7344 8.88021,0 16.32813,3.6523 7.51953,3.5808 11.8164,9.8112 4.29688,6.2305 4.29688,13.6068 0,9.2383 -4.79818,15.612 -4.79817,6.3737 -13.32031,8.4505 v 1.1458 q 10.52734,1.3607 16.54297,8.2357 6.01562,6.8034 6.01562,17.4024 0,12.74732 -10.52734,21.55592 -10.52734,8.737 -25.85286,8.737 -15.75521,0 -25.70964,-8.0208 -9.95442,-8.0925 -10.67057,-21.34122 h 12.46094 q 0.85937,8.23572 7.30468,13.17712 6.44532,4.9414 16.47136,4.9414 10.16927,0 16.68619,-5.4427 6.58855,-5.4427 6.58855,-13.96482 0,-8.9518 -6.3737,-14.1797 -6.3737,-5.2279 -17.40234,-5.2279 z" />
      <rect
         y="888.36218"
         x="0"
         height="164"
         width="90"
         id="rect4853"
         style="opacity:1;fill:#0000ff;fill-opacity:0;stroke:none;stroke-width:6.24861574;stroke-opacity:1" />
    </g>
    <g
       transform="translate(-994.88286,-418)"
       id="4_1">
      <path
         inkscape:connector-curvature="0"
         id="path4857"
         style="font-style:normal;font-variant:normal;font-weight:normal;font-stretch:normal;font-size:146.66665649px;line-height:25px;font-family:'SF UI Text';-inkscape-font-specification:'SF UI Text, Normal';font-variant-ligatures:normal;font-variant-caps:normal;font-variant-numeric:normal;font-feature-settings:normal;text-align:start;letter-spacing:0px;word-spacing:0px;writing-mode:lr-tb;text-anchor:start;fill:#ff485f;fill-opacity:1;stroke:none;stroke-width:1"
         d="m 56.52995,1022.0321 v -21.4127 H 6.1849 v -11.74482 q 14.17969,-25.2084 44.25781,-70.1823 h 18.6914 v 70.3971 H 83.8151 v 11.53002 H 69.13411 v 21.4127 z M 19.36198,988.30168 v 0.8593 h 37.23958 v -58.5091 h -0.85937 q -16.75781,24.349 -36.38021,57.6498 z" />
      <rect
         y="888.36218"
         x="0"
         height="164"
         width="90"
         id="rect4859"
         style="opacity:1;fill:#0000ff;fill-opacity:0;stroke:none;stroke-width:6.24861574;stroke-opacity:1" />
    </g>
    <g
       transform="translate(-1161.6179,-418)"
       id="5_1">
      <path
         inkscape:connector-curvature="0"
         id="path4863"
         style="font-style:normal;font-variant:normal;font-weight:normal;font-stretch:normal;font-size:146.66665649px;line-height:25px;font-family:'SF UI Text';-inkscape-font-specification:'SF UI Text, Normal';font-variant-ligatures:normal;font-variant-caps:normal;font-variant-numeric:normal;font-feature-settings:normal;text-align:start;letter-spacing:0px;word-spacing:0px;writing-mode:lr-tb;text-anchor:start;fill:#ff485f;fill-opacity:1;stroke:none;stroke-width:1"
         d="m 44.31966,1023.2495 q -14.68099,0 -24.27734,-8.2357 -9.59635,-8.3072 -10.45573,-21.69917 h 12.67578 q 0.85938,8.37887 6.94661,13.53517 6.15886,5.0846 15.25391,5.0846 10.38411,0 16.6862,-6.5169 6.37369,-6.51687 6.37369,-17.11587 0,-10.599 -6.37369,-17.1875 -6.30209,-6.6601 -16.47136,-6.6601 -7.01823,0 -12.60416,3.0794 -5.58594,3.0078 -8.73698,8.5221 H 11.23373 l 5.65755,-58.5807 h 57.64973 v 11.5299 H 26.98893 l -2.93619,33.1576 h 1.14583 q 7.51953,-8.8086 21.84244,-8.8086 14.75261,0 24.0625,9.668 9.3099,9.6679 9.3099,24.9218 0,15.75517 -10.02604,25.56637 -10.02604,9.7396 -26.06771,9.7396 z" />
      <rect
         y="888.36218"
         x="0"
         height="164"
         width="90"
         id="rect4865"
         style="opacity:1;fill:#0000ff;fill-opacity:0;stroke:none;stroke-width:6.24861574;stroke-opacity:1" />
    </g>
    <g
       transform="translate(-1319.3978,-418)"
       id="6_1">
      <path
         inkscape:connector-curvature="0"
         id="path4869"
         style="font-style:normal;font-variant:normal;font-weight:normal;font-stretch:normal;font-size:146.66665649px;line-height:25px;font-family:'SF UI Text';-inkscape-font-specification:'SF UI Text, Normal';font-variant-ligatures:normal;font-variant-caps:normal;font-variant-numeric:normal;font-feature-settings:normal;text-align:start;letter-spacing:0px;word-spacing:0px;writing-mode:lr-tb;text-anchor:start;fill:#ff485f;fill-opacity:1;stroke:none;stroke-width:1"
         d="m 46.32487,1024.4312 q -11.67318,0 -20.33854,-6.0156 -8.66537,-6.0873 -13.53516,-17.474 -5.01302,-11.74482 -5.01302,-28.78902 0,-26.6407 10.38412,-41.25 10.38411,-14.6094 29.36197,-14.6094 13.17709,0 22.27214,7.3047 9.16666,7.2331 11.60156,19.694 h -13.2487 q -2.07682,-7.2331 -7.66276,-11.3867 -5.51432,-4.1537 -13.10547,-4.1537 -12.60416,0 -19.62239,10.8854 -6.94661,10.8855 -7.44792,31.5105 h 1.14584 q 3.79557,-7.5196 11.02864,-11.6732 7.23307,-4.2253 16.47135,-4.2253 14.75261,0 24.34896,9.8112 9.59636,9.7396 9.59636,24.7787 0,15.61192 -10.16928,25.63802 -10.16927,9.9544 -26.0677,9.9544 z m -16.82943,-18.2617 q 6.73177,6.9466 16.6862,6.9466 9.95443,0 16.61458,-6.8034 6.73177,-6.87502 6.73177,-17.04432 0,-10.5989 -6.51692,-17.1875 -6.44532,-6.6601 -16.6862,-6.6601 -10.24089,0 -16.90104,6.5885 -6.58854,6.5886 -6.58854,16.8295 0,10.3841 6.66015,17.33072 z" />
      <rect
         y="888.36218"
         x="0"
         height="164"
         width="90"
         id="rect4871"
         style="opacity:1;fill:#0000ff;fill-opacity:0;stroke:none;stroke-width:6.24861574;stroke-opacity:1" />
    </g>
    <g
       transform="translate(-1456.8913,-418)"
       id="7_1">
      <path
         inkscape:connector-curvature="0"
         id="path4875"
         style="font-style:normal;font-variant:normal;font-weight:normal;font-stretch:normal;font-size:146.66665649px;line-height:25px;font-family:'SF UI Text';-inkscape-font-specification:'SF UI Text, Normal';font-variant-ligatures:normal;font-variant-caps:normal;font-variant-numeric:normal;font-feature-settings:normal;text-align:start;letter-spacing:0px;word-spacing:0px;writing-mode:lr-tb;text-anchor:start;fill:#ff485f;fill-opacity:1;stroke:none;stroke-width:1"
         d="m 18.610035,1022.0321 46.6211,-90.66402 v -1.1459 h -53.35287 v -11.5299 h 66.24347 v 11.9596 l -45.97655,91.38022 z" />
      <rect
         y="888.36218"
         x="0"
         height="164"
         width="90"
         id="rect4877"
         style="opacity:1;fill:#0000ff;fill-opacity:0;stroke:none;stroke-width:6.24861574;stroke-opacity:1" />
    </g>
    <g
       transform="translate(-1620.7552,-418)"
       id="8_1">
      <path
         inkscape:connector-curvature="0"
         id="path4881"
         style="font-style:normal;font-variant:normal;font-weight:normal;font-stretch:normal;font-size:146.66665649px;line-height:25px;font-family:'SF UI Text';-inkscape-font-specification:'SF UI Text, Normal';font-variant-ligatures:normal;font-variant-caps:normal;font-variant-numeric:normal;font-feature-settings:normal;text-align:start;letter-spacing:0px;word-spacing:0px;writing-mode:lr-tb;text-anchor:start;fill:#ff485f;fill-opacity:1;stroke:none;stroke-width:1"
         d="M 71.7839,1016.0881 Q 61.3998,1024.467 45,1024.467 q -16.3997,0 -26.8554,-8.3789 -10.3842,-8.4505 -10.3842,-21.69922 0,-10.0977 5.8724,-17.3307 5.8724,-7.2331 15.612,-9.0235 v -1.1458 q -7.8776,-2.1484 -12.6042,-8.3789 -4.6549,-6.2305 -4.6549,-14.681 0,-12.1029 9.2383,-19.8372 9.3099,-7.7344 23.776,-7.7344 14.4662,0 23.7044,7.7344 9.3099,7.7343 9.3099,19.8372 0,8.5221 -4.6549,14.681 -4.5833,6.1588 -12.6042,8.3789 v 1.1458 q 9.7396,1.7904 15.612,9.0235 5.8724,7.233 5.8724,17.3307 0,13.24872 -10.4557,21.69922 z m -44.2578,-8.164 q 6.7317,5.5143 17.4739,5.5143 10.7422,0 17.474,-5.5143 6.7317,-5.586 6.7317,-14.46622 0,-8.8802 -6.7317,-14.3945 -6.7318,-5.586 -17.474,-5.586 -10.7422,0 -17.4739,5.586 -6.7318,5.5143 -6.7318,14.3945 0,8.88022 6.7318,14.46622 z m 2.7213,-50.13032 q 5.586,4.7982 14.7526,4.7982 9.1667,0 14.7526,-4.7982 5.586,-4.8697 5.586,-12.7473 0,-8.0209 -5.586,-12.8907 -5.5859,-4.8698 -14.7526,-4.8698 -9.1666,0 -14.7526,4.8698 -5.5859,4.8698 -5.5859,12.8907 0,7.8776 5.5859,12.7473 z" />
      <rect
         y="888.36218"
         x="0"
         height="164"
         width="90"
         id="rect4883"
         style="opacity:1;fill:#0000ff;fill-opacity:0;stroke:none;stroke-width:6.24861574;stroke-opacity:1" />
    </g>
    <g
       transform="translate(-1766.9174,-418)"
       id="9_1">
      <path
         inkscape:connector-curvature="0"
         id="path4887"
         style="font-style:normal;font-variant:normal;font-weight:normal;font-stretch:normal;font-size:146.66665649px;line-height:25px;font-family:'SF UI Text';-inkscape-font-specification:'SF UI Text, Normal';font-variant-ligatures:normal;font-variant-caps:normal;font-variant-numeric:normal;font-feature-settings:normal;text-align:start;letter-spacing:0px;word-spacing:0px;writing-mode:lr-tb;text-anchor:start;fill:#ff485f;fill-opacity:1;stroke:none;stroke-width:1"
         d="m 42.815765,1024.4312 q -13.1771,0 -22.3437,-7.2331 -9.0951,-7.3047 -11.53,-19.76562 h 13.2487 q 2.0769,7.23312 7.5912,11.38672 5.5859,4.1537 13.1771,4.1537 12.6041,0 19.5507,-10.8854 7.01827,-10.88552 7.51957,-31.51052 h -0.5729 -0.2865 -0.2865 q -3.79547,7.5196 -11.02857,11.7448 -7.2331,4.1537 -16.4714,4.1537 -14.7526,0 -24.3489,-9.7396 -9.5964,-9.8112 -9.5964,-24.8503 0,-15.6119 10.1693,-25.5664 10.1693,-10.026 26.0677,-10.026 11.6016,0 20.3385,6.0156 8.73697,6.0156 13.53517,17.474 5.013,11.7448 5.013,28.789 0,26.6407 -10.3841,41.25002 -10.38407,14.6094 -29.36197,14.6094 z m -15.8984,-55.71612 q 6.5169,6.5885 16.7578,6.5885 10.2409,0 16.8294,-6.5885 6.66017,-6.5886 6.66017,-16.8295 0,-10.3841 -6.73177,-17.3307 -6.6601,-6.9466 -16.6146,-6.9466 -9.9544,0 -16.6862,6.875 -6.6601,6.8034 -6.6601,16.9727 0,10.5989 6.4453,17.2591 z" />
      <rect
         y="888.36218"
         x="0"
         height="164"
         width="90"
         id="rect4889"
         style="opacity:1;fill:#0000ff;fill-opacity:0;stroke:none;stroke-width:6.24861574;stroke-opacity:1" />
    </g>
    <g
       transform="translate(-387.45435,-418)"
       id="0_1">
      <path
         inkscape:connector-curvature="0"
         id="path4893"
         style="font-style:normal;font-variant:normal;font-weight:normal;font-stretch:normal;font-size:146.66665649px;line-height:25px;font-family:'SF UI Text';-inkscape-font-specification:'SF UI Text, Normal';font-variant-ligatures:normal;font-variant-caps:normal;font-variant-numeric:normal;font-feature-settings:normal;text-align:start;letter-spacing:0px;word-spacing:0px;writing-mode:lr-tb;text-anchor:start;fill:#ff485f;fill-opacity:1;stroke:none;stroke-width:1"
         d="m 45.07155,1024.467 q -17.4739,0 -27.0703,-14.1797 -9.5963,-14.17972 -9.5963,-39.96092 0,-25.5664 9.6679,-39.8177 9.668,-14.2513 26.9987,-14.2513 17.2591,0 26.8555,14.3229 9.668,14.3229 9.668,39.9609 0,25.7097 -9.5964,39.81772 -9.5247,14.1081 -26.9271,14.1081 z m -17.6172,-22.3437 q 6.1589,11.1002 17.6172,11.1002 11.4583,0 17.474,-11.0286 6.0872,-11.10032 6.0872,-31.86852 0,-20.5534 -6.1588,-31.6536 -6.0873,-11.1003 -17.4024,-11.1003 -11.3151,0 -17.5456,11.1719 -6.1588,11.1002 -6.1588,31.582 0,20.6966 6.0872,31.79692 z" />
      <rect
         y="888.36218"
         x="0"
         height="164"
         width="90"
         id="rect4895"
         style="opacity:1;fill:#0000ff;fill-opacity:0;stroke:none;stroke-width:6.24861574;stroke-opacity:1" />
    </g>
    <g
       transform="translate(-1605,-234.84572)"
       id="separator_1">
      <path
         inkscape:connector-curvature="0"
         id="path4899"
         style="font-style:normal;font-variant:normal;font-weight:normal;font-stretch:normal;font-size:medium;line-height:25px;font-family:'SF UI Text';-inkscape-font-specification:'SF UI Text';font-variant-ligatures:normal;font-variant-caps:normal;font-variant-numeric:normal;font-feature-settings:normal;text-align:start;letter-spacing:0px;word-spacing:0px;writing-mode:lr-tb;text-anchor:start;fill:#ff485f;fill-opacity:1;stroke:none"
         d="m 45,1007.2079 q -3.795573,0 -6.588541,-2.7214 -2.721356,-2.793 -2.721356,-6.58853 0,-3.86719 2.721356,-6.58854 2.792968,-2.72136 6.588541,-2.72136 3.867187,0 6.588541,2.72136 2.721355,2.72135 2.721355,6.58854 0,3.79553 -2.721355,6.58853 -2.721354,2.7214 -6.588541,2.7214 z m 0,-55.07165 q -3.795573,0 -6.588541,-2.72135 -2.721356,-2.79297 -2.721356,-6.58855 0,-3.86718 2.721356,-6.58854 2.792968,-2.72135 6.588541,-2.72135 3.867187,0 6.588541,2.72135 2.721355,2.72136 2.721355,6.58854 0,3.79558 -2.721355,6.58855 Q 48.867187,952.13625 45,952.13625 Z" />
      <rect
         y="888.36218"
         x="22.5"
         height="164"
         width="45"
         id="rect4901"
         style="opacity:1;fill:#0000ff;fill-opacity:0;stroke:none;stroke-width:4.41843843;stroke-opacity:1" />
    </g>
    <g
       id="separatorB_1"
       transform="translate(-1805,-234.84572)">
      <path
         inkscape:connector-curvature="0"
         id="path4905"
         style="font-style:normal;font-variant:normal;font-weight:normal;font-stretch:normal;font-size:medium;line-height:25px;font-family:'SF UI Text';-inkscape-font-specification:'SF UI Text';font-variant-ligatures:normal;font-variant-caps:normal;font-variant-numeric:normal;font-feature-settings:normal;text-align:start;letter-spacing:0px;word-spacing:0px;writing-mode:lr-tb;text-anchor:start;fill:#ff485f;fill-opacity:1;stroke:none"
         d="m 45.000005,1007.208 q -3.79558,0 -6.58854,-2.7214 -2.72136,-2.793 -2.72136,-6.58853 0,-3.86719 2.72136,-6.58854 2.79296,-2.72136 6.58854,-2.72136 3.86719,0 6.58854,2.72136 2.72135,2.72135 2.72135,6.58854 0,3.79553 -2.72135,6.58853 -2.72135,2.7214 -6.58854,2.7214 z" />
      <rect
         y="888.36218"
         x="22.5"
         height="164"
         width="45"
         id="rect4907"
         style="opacity:1;fill:#0000ff;fill-opacity:0;stroke:none;stroke-width:4.41843843;stroke-opacity:1" />
    </g>
    <rect
       y="1168.3622"
       x="-5"
       height="164"
       width="45"
       id="separatorC"
       style="opacity:1;fill:#00ffff;fill-opacity:0;stroke:none;stroke-width:4.41843843;stroke-opacity:1" />
  </g>
</svg>
