<?xml version="1.0" encoding="UTF-8" standalone="no"?>
<!-- Created with Inkscape (http://www.inkscape.org/) -->

<svg
   xmlns:dc="http://purl.org/dc/elements/1.1/"
   xmlns:cc="http://creativecommons.org/ns#"
   xmlns:rdf="http://www.w3.org/1999/02/22-rdf-syntax-ns#"
   xmlns:svg="http://www.w3.org/2000/svg"
   xmlns="http://www.w3.org/2000/svg"
   xmlns:xlink="http://www.w3.org/1999/xlink"
   xmlns:sodipodi="http://sodipodi.sourceforge.net/DTD/sodipodi-0.dtd"
   xmlns:inkscape="http://www.inkscape.org/namespaces/inkscape"
   width="136"
   height="136.00005"
   viewBox="0 0 35.983333 35.983346"
   id="svg2"
   version="1.1"
   inkscape:version="0.92.4 5da689c313, 2019-01-14"
   sodipodi:docname="busywidget-n.svg">
  <defs
     id="defs4">
    <linearGradient
       id="linearGradient1027"
       inkscape:collect="always">
      <stop
         id="stop1023"
         offset="0"
         style="stop-color:#16f66c;stop-opacity:1" />
      <stop
         id="stop1025"
         offset="1"
         style="stop-color:#1fc8f7;stop-opacity:1" />
    </linearGradient>
    <linearGradient
       id="linearGradient1021"
       inkscape:collect="always">
      <stop
         id="stop1017"
         offset="0"
         style="stop-color:#16f66c;stop-opacity:1" />
      <stop
         id="stop1019"
         offset="1"
         style="stop-color:#1fc8f7;stop-opacity:1" />
    </linearGradient>
    <linearGradient
       inkscape:collect="always"
       id="linearGradient837">
      <stop
         style="stop-color:#16f66c;stop-opacity:1"
         offset="0"
         id="stop833" />
      <stop
         style="stop-color:#1fc8f7;stop-opacity:1"
         offset="1"
         id="stop835" />
    </linearGradient>
    <style
       type="text/css"
       id="current-color-scheme">
      .ColorScheme-Text {
        color:#31363b;
        stop-color:#31363b;
      }
      .ColorScheme-Background {
        color:#eff0f1;
        stop-color:#eff0f1;
      }
      .ColorScheme-Highlight {
        color:#3daee9;
        stop-color:#3daee9;
      }
      .ColorScheme-ViewText {
        color:#31363b;
        stop-color:#31363b;
      }
      .ColorScheme-ViewBackground {
        color:#fcfcfc;
        stop-color:#fcfcfc;
      }
      .ColorScheme-ViewHover {
        color:#93cee9;
        stop-color:#93cee9;
      }
      .ColorScheme-ViewFocus{
        color:#3daee9;
        stop-color:#3daee9;
      }
      .ColorScheme-ButtonText {
        color:#31363b;
        stop-color:#31363b;
      }
      .ColorScheme-ButtonBackground {
        color:#eff0f1;
        stop-color:#eff0f1;
      }
      .ColorScheme-ButtonHover {
        color:#93cee9;
        stop-color:#93cee9;
      }
      .ColorScheme-ButtonFocus{
        color:#3daee9;
        stop-color:#3daee9;
      }
      </style>
    <linearGradient
       inkscape:collect="always"
       xlink:href="#linearGradient1021"
       id="linearGradient839"
       x1="55"
       y1="136.00003"
       x2="130"
       y2="101.00002"
       gradientUnits="userSpaceOnUse" />
    <linearGradient
       inkscape:collect="always"
       xlink:href="#linearGradient1027"
       id="linearGradient847"
       x1="7.0000062"
       y1="22.968817"
       x2="21"
       y2="15.46875"
       gradientUnits="userSpaceOnUse" />
    <linearGradient
       inkscape:collect="always"
       xlink:href="#linearGradient837"
       id="linearGradient855"
       x1="5.9999914"
       y1="14.968805"
       x2="15.000004"
       y2="11.218774"
       gradientUnits="userSpaceOnUse" />
  </defs>
  <sodipodi:namedview
     id="base"
     pagecolor="#1e1e1e"
     bordercolor="#c90303"
     borderopacity="1"
     inkscape:pageopacity="0"
     inkscape:pageshadow="2"
     inkscape:zoom="5.11"
     inkscape:cx="120.74412"
     inkscape:cy="38.05314"
     inkscape:document-units="px"
     inkscape:current-layer="layer1"
     showgrid="true"
     units="px"
     inkscape:showpageshadow="false"
     borderlayer="true"
     inkscape:window-width="1920"
     inkscape:window-height="1051"
     inkscape:window-x="0"
     inkscape:window-y="0"
     inkscape:window-maximized="1"
     fit-margin-top="0"
     fit-margin-left="0"
     fit-margin-right="0"
     fit-margin-bottom="0"
     inkscape:pagecheckerboard="true">
    <inkscape:grid
       type="xygrid"
       id="grid4511"
       visible="true"
       originx="-3.0154418e-07"
       originy="-3.9858399e-06"
       spacingx="0.26458333"
       spacingy="0.26458333" />
  </sodipodi:namedview>
  <metadata
     id="metadata7">
    <rdf:RDF>
      <cc:Work
         rdf:about="">
        <dc:format>image/svg+xml</dc:format>
        <dc:type
           rdf:resource="http://purl.org/dc/dcmitype/StillImage" />
        <dc:title></dc:title>
      </cc:Work>
    </rdf:RDF>
  </metadata>
  <g
     inkscape:label="Capa 1"
     inkscape:groupmode="layer"
     id="layer1"
     transform="translate(0.5291667,-249.37497)">
    <rect
       style="fill:#0000ff;fill-opacity:1;fill-rule:nonzero;stroke:none;stroke-width:0.26458335"
       id="hint-rotation-angle"
       width="3.7041671"
       height="3.7041693"
       x="-0.52916706"
       y="285.35831" />
    <g
       id="busywidget">
      <rect
         y="249.37497"
         x="-0.5291667"
         height="35.983345"
         width="35.983334"
         id="rect4524"
         style="opacity:1;fill:#550000;fill-opacity:0;stroke:none;stroke-width:2.00739384;stroke-opacity:1" />
      <g
         id="g4570">
        <path
           id="path4533"
           d="m 17.4625,251.49165 a 15.875,15.875 0 0 0 -15.8749998,15.875 15.875,15.875 0 0 0 15.8749998,15.875 15.875,15.875 0 0 0 15.875,-15.875 15.875,15.875 0 0 0 -15.875,-15.875 z m 0,1.5875 A 14.2875,14.2875 0 0 1 31.75,267.36665 14.2875,14.2875 0 0 1 17.4625,281.65415 14.2875,14.2875 0 0 1 3.1750002,267.36665 14.2875,14.2875 0 0 1 17.4625,253.07915 Z"
           style="opacity:0.1;fill:#000000;fill-opacity:1;stroke:none;stroke-width:2.25473905;stroke-opacity:1"
           inkscape:connector-curvature="0" />
        <path
           style="opacity:1;fill:url(#linearGradient839);fill-opacity:1;stroke:none;stroke-width:8.52184868;stroke-opacity:1"
           d="m 125,65 a 2.9999998,2.9999998 0 0 0 -3,3 54,54 0 0 1 -54,54 2.9999998,2.9999998 0 0 0 -3,3 2.9999998,2.9999998 0 0 0 3,3 60,60 0 0 0 60,-60 2.9999998,2.9999998 0 0 0 -3,-3 z"
           transform="matrix(0.26458333,0,0,0.26458333,-0.52916664,249.37498)"
           id="path4539"
           inkscape:connector-curvature="0" />
      </g>
    </g>
    <g
       id="22-22-busywidget"
       transform="translate(44.185414,33.866657)">
      <path
         inkscape:connector-curvature="0"
         style="opacity:0.1;fill:#000000;fill-opacity:1;stroke:none;stroke-width:2;stroke-opacity:1"
         d="m 2.3812503,230.86241 a 2.6458332,2.6458332 0 0 0 -2.64583327,2.64583 2.6458332,2.6458332 0 0 0 2.64583327,2.64584 2.6458332,2.6458332 0 0 0 2.6458333,-2.64584 2.6458332,2.6458332 0 0 0 -2.6458333,-2.64583 z m 0,0.53743 a 2.1166665,2.1166665 0 0 1 2.1166666,2.11667 2.1166665,2.1166665 0 0 1 -2.1166666,2.11667 2.1166665,2.1166665 0 0 1 -2.11666656,-2.11667 2.1166665,2.1166665 0 0 1 2.11666656,-2.11667 z"
         id="path4583" />
      <path
         id="path4591"
         transform="matrix(0.26458333,0,0,0.26458333,-0.52916659,230.59783)"
         d="m 20,9.96875 a 0.99999995,0.99999995 0 0 0 -1,1 H 18.998 A 7.9999994,7.9999994 0 0 1 19,11 7.9999994,7.9999994 0 0 1 11,19 v -0.03125 a 0.99999995,0.99999995 0 0 0 -1,1 0.99999995,0.99999995 0 0 0 1,1 9.9999995,9.9999995 0 0 0 10,-10 0.99999995,0.99999995 0 0 0 -1,-1 z"
         style="opacity:1;fill:url(#linearGradient847);fill-opacity:1;stroke:none;stroke-width:7.55905533;stroke-opacity:1"
         inkscape:connector-curvature="0" />
      <rect
         y="230.58957"
         x="-0.52916664"
         height="5.8208332"
         width="5.8208332"
         id="rect4601"
         style="opacity:1;fill:#ff00ff;fill-opacity:0;stroke:none;stroke-width:2;stroke-opacity:1" />
    </g>
    <g
       id="16-16-busywidget"
       transform="translate(52.122918,33.86666)">
      <path
         inkscape:connector-curvature="0"
         style="opacity:0.1;fill:#000000;fill-opacity:1;stroke:none;stroke-width:1.99999988;stroke-opacity:1"
         d="m 2.3812499,231.65616 a 1.8520833,1.8520833 0 0 0 -1.85208332,1.85209 1.8520833,1.8520833 0 0 0 1.85208332,1.85208 1.8520833,1.8520833 0 0 0 1.8520833,-1.85208 1.8520833,1.8520833 0 0 0 -1.8520833,-1.85209 z m 0,0.26459 a 1.5875,1.5875 0 0 1 1.5875,1.5875 1.5875,1.5875 0 0 1 -1.5875,1.5875 1.5875,1.5875 0 0 1 -1.58750002,-1.5875 1.5875,1.5875 0 0 1 1.58750002,-1.5875 z"
         id="path4613" />
      <path
         id="path4619"
         transform="matrix(0.26458333,0,0,0.26458333,0.26458321,231.39158)"
         d="M 14.5,7.46875 A 0.49999997,0.49999997 0 0 0 14.001953,7.9375 h -0.0039 A 5.9999996,5.9999996 0 0 1 14,7.9667969 0.49999997,0.49999997 0 0 0 14,7.96875 5.9999996,5.9999996 0 0 1 8,13.966797 v 0.002 a 0.49999997,0.49999997 0 0 0 -0.5,0.5 0.49999997,0.49999997 0 0 0 0.5,0.5 v -0.002 A 6.9999998,6.9999998 0 0 0 15,7.96875 0.49999997,0.49999997 0 0 0 15,7.9648438 6.9999998,6.9999998 0 0 0 14.998047,7.9375 0.49999997,0.49999997 0 0 0 14.5,7.46875 Z"
         style="opacity:1;fill:url(#linearGradient855);fill-opacity:1;stroke:none;stroke-width:7.55905485;stroke-opacity:1"
         inkscape:connector-curvature="0" />
      <rect
         y="231.38332"
         x="0.26458335"
         height="4.2333331"
         width="4.2333331"
         id="rect4629"
         style="opacity:1;fill:#ffff00;fill-opacity:0;stroke:none;stroke-width:2;stroke-opacity:1" />
    </g>
    <g
       id="stopped"
       transform="translate(6.3500028,35.983359)">
      <circle
         r="2.1166668"
         cy="231.38329"
         cx="-38.100002"
         id="path4642"
         style="opacity:1;fill:#ffffff;fill-opacity:1;stroke:none;stroke-width:1.08179748;stroke-opacity:1" />
      <circle
         style="opacity:1;fill:#ffffff;fill-opacity:1;stroke:none;stroke-width:1.08179748;stroke-opacity:1"
         id="circle4644"
         cx="-24.870836"
         cy="231.38329"
         r="2.1166668" />
      <circle
         r="2.1166668"
         cy="231.38329"
         cx="-11.377086"
         id="circle4646"
         style="opacity:1;fill:#ffffff;fill-opacity:1;stroke:none;stroke-width:1.08179748;stroke-opacity:1" />
      <rect
         y="213.39162"
         x="-42.862503"
         height="35.983334"
         width="35.983334"
         id="rect4648"
         style="opacity:1;fill:#ff00ff;fill-opacity:0;stroke:none;stroke-width:10.46928406;stroke-opacity:1" />
    </g>
  </g>
</svg>
