<?xml version="1.0" encoding="UTF-8" standalone="no"?>
<svg
   xmlns:dc="http://purl.org/dc/elements/1.1/"
   xmlns:cc="http://creativecommons.org/ns#"
   xmlns:rdf="http://www.w3.org/1999/02/22-rdf-syntax-ns#"
   xmlns:svg="http://www.w3.org/2000/svg"
   xmlns="http://www.w3.org/2000/svg"
   xmlns:sodipodi="http://sodipodi.sourceforge.net/DTD/sodipodi-0.dtd"
   xmlns:inkscape="http://www.inkscape.org/namespaces/inkscape"
   height="48"
   width="48"
   version="1.1"
   id="svg863"
   sodipodi:docname="folder-new.svg"
   inkscape:version="0.92.4 5da689c313, 2019-01-14">
  <metadata
     id="metadata869">
    <rdf:RDF>
      <cc:Work
         rdf:about="">
        <dc:format>image/svg+xml</dc:format>
        <dc:type
           rdf:resource="http://purl.org/dc/dcmitype/StillImage" />
        <dc:title></dc:title>
      </cc:Work>
    </rdf:RDF>
  </metadata>
  <defs
     id="defs867" />
  <sodipodi:namedview
     pagecolor="#ffffff"
     bordercolor="#666666"
     borderopacity="1"
     objecttolerance="10"
     gridtolerance="10"
     guidetolerance="10"
     inkscape:pageopacity="0"
     inkscape:pageshadow="2"
     inkscape:window-width="1920"
     inkscape:window-height="1059"
     id="namedview865"
     showgrid="false"
     inkscape:zoom="4.9166667"
     inkscape:cx="24"
     inkscape:cy="24"
     inkscape:window-x="0"
     inkscape:window-y="0"
     inkscape:window-maximized="1"
     inkscape:current-layer="svg863" />
  <g
     transform="translate(0 .99498)"
     id="g855">
    <path
       d="m4 35.005v-28c0-1.108.89878-2.1224 2-2h16l4 4h16.103s1.8975 0 1.8975 2v24c0 1.108-.892 2-2 2h-36c-1.108 0-2-.892-2-2z"
       fill="#01d5c9"
       id="path843" />
    <path
       d="m44 39.005v-28c0-1.108-.89878-2.1224-2-2h-16l-4 4h-16c-2 0-2 1.9167-2 1.9167v24.083c0 1.108.892 2 2 2h36c1.108 0 2-.892 2-2z"
       fill="#acacac"
       style="fill:#02f6e9;fill-opacity:1"
       id="path845" />
    <path
       d="m6 5.005c-1.108 0-2 .892-2 2v1c0-1.108.892-2 2-2h16l4 4v-1l-4-4z"
       fill="#ffffff"
       opacity=".1"
       id="path847" />
    <path
       d="m26 9.005l-4 4h-16c-2 0-2 1.9062-2 1.9062v1s0-1.9062 2-1.9062h16l4-4h16c1.1012-.12236 2 .892 2 2v-1c0-1.108-.89878-2.1224-2-2z"
       fill="#ffffff"
       opacity=".1"
       id="path849" />
    <path
       d="m25 9.005l-3 3h-16c-2 0-2 1.9062-2 1.9062v1s0-1.9062 2-1.9062h16l3.5-3.5z"
       opacity=".1"
       id="path851" />
    <path
       d="m4 37.994v1.006c0 1.108.892 2 2 2h36c1.108 0 2-.892 2-2v-1.0059c0 1.108-.892 2-2 2h-36c-1.108 0-2-.89201-2-2z"
       opacity=".3"
       id="path853" />
  </g>
  <g
     fill="#4d4d4d"
     fill-rule="evenodd"
     transform="matrix(1.5001531 0 0 1.5001531 -19.122518 -15.771044)"
     id="g861">
    <path
       d="m33.686215 24.01977c0 1.79842 0 3.59684 0 5.395259-1.83919 0-3.67838.000001-5.51757 0 0 .729004 0 1.458007 0 2.18701 1.83919 0 3.67838 0 5.51757 0 0 1.83915 0 3.6783 0 5.51745.729003 0 1.458006 0 2.187009 0 0-1.83915 0-3.6783 0-5.51745 1.83915 0 3.6783 0 5.51745 0 0-.729003 0-1.458006 0-2.18701-1.83915 0-3.6783 0-5.51745 0 0-1.839189 0-3.678379 0-5.517569-.729003 0-1.458006 0-2.187009 0v .06116z"
       id="path857" />
    <path
       d="m33.692385 24.62994c0 1.79842 0 3.59684 0 5.395259-1.83919 0-3.67838.000001-5.51757 0 0 .729004 0 1.458007 0 2.18701 1.83919 0 3.67838 0 5.51757 0 0 1.83915 0 3.6783 0 5.51745.729003 0 1.458006 0 2.187009 0 0-1.83915 0-3.6783 0-5.51745 1.83915 0 3.6783 0 5.51745 0 0-.729003 0-1.458006 0-2.18701-1.83915 0-3.6783 0-5.51745 0 0-1.839189 0-3.678379 0-5.517569-.729003 0-1.458006 0-2.187009 0v .06116z"
       opacity=".2"
       id="path859" />
  </g>
</svg>
